<svg width="33" height="67" viewBox="0 0 33 67" fill="none" xmlns="http://www.w3.org/2000/svg">
<path fill-rule="evenodd" clip-rule="evenodd" d="M32.631 0.0551693C31.2925 -0.0701311 29.9182 0.0153153 28.9845 0.339083C26.6385 1.15253 24.7453 2.74588 24.1218 4.43127C23.6354 5.74705 22.9815 9.03983 22.9815 10.1746C22.9815 10.8201 22.8067 11.2138 22.3328 11.635C21.7155 12.1837 21.7993 14.1143 21.7993 14.1143C21.7993 14.1143 22.7289 18.5661 23.5474 18.922C24.2774 19.2393 25.035 22.2861 24.9266 24.4693L24.8513 25.9885L23.0236 27.4486C20.2945 29.6287 17.6862 31.0278 14.3944 32.0774C10.7725 33.2321 10.2482 33.5401 7.97706 35.8456C4.95174 38.917 2.70077 43.3723 2.37318 46.9375C2.26748 48.0908 2.3657 48.6883 2.88675 50.0521C3.4078 51.4159 2.67883 53.6198 2.67883 53.6198C1.89501 55.3492 1.79654 55.8439 1.452 59.7877C1.15638 63.1702 0.892003 64.8616 0 66.718H9.44019C9.55794 65.7271 9.69914 65.4245 9.97299 64.9233C10.681 63.6273 13.0567 58.5342 13.0567 58.5342C13.0567 58.5342 13.5802 60.2391 15.1341 64.7773C15.4002 65.5544 15.6157 66.1856 15.7884 66.718H32.631V26H30.4318L32.631 21.1318V0.0551693Z" fill="url(#paint0_linear_0_50)"/>
<defs>
<linearGradient id="paint0_linear_0_50" x1="-38.6319" y1="73.6607" x2="-9.63808" y2="101.203" gradientUnits="userSpaceOnUse">
<stop stop-color="#FFE175"/>
<stop offset="0.53125" stop-color="#FBA3A3"/>
<stop offset="1" stop-color="#FC52FF"/>
</linearGradient>
</defs>
</svg>
