<svg width="214" height="68" viewBox="0 0 214 68" fill="none" xmlns="http://www.w3.org/2000/svg">
<path d="M68.6369 32L66.7449 24.776H58.5319L56.6829 32H50.1469L58.2739 1.98602H67.3899L75.5169 32H68.6369ZM62.8319 8.22102H62.4879L59.5639 19.573H65.7559L62.8319 8.22102Z" fill="#181818"/>
<path d="M82.4661 32L74.5111 9.81202H81.2191L84.1001 19.315L86.2071 26.711H86.5511L88.6581 19.315L91.5391 9.81202H97.9891L90.0341 32H82.4661Z" fill="#181818"/>
<path d="M117.709 32C116.391 32 115.33 31.6704 114.527 31.011C113.725 30.323 113.252 29.3484 113.108 28.087H112.893C112.492 29.549 111.689 30.6527 110.485 31.398C109.31 32.1434 107.862 32.516 106.142 32.516C103.992 32.516 102.258 31.9427 100.939 30.796C99.6493 29.6207 99.0043 27.9867 99.0043 25.894C99.0043 23.572 99.85 21.852 101.541 20.734C103.233 19.616 105.712 19.057 108.98 19.057H112.549V17.939C112.549 16.6204 112.234 15.6314 111.603 14.972C111.001 14.284 109.969 13.94 108.507 13.94C107.16 13.94 106.071 14.198 105.239 14.714C104.408 15.23 103.691 15.9037 103.089 16.735L99.6063 13.639C100.352 12.3777 101.513 11.3457 103.089 10.543C104.695 9.71169 106.744 9.29602 109.238 9.29602C112.277 9.29602 114.642 9.99836 116.333 11.403C118.053 12.779 118.913 14.8717 118.913 17.681V27.399H121.364V32H117.709ZM108.55 28.345C109.668 28.345 110.614 28.0727 111.388 27.528C112.162 26.9834 112.549 26.195 112.549 25.163V22.497H109.152C106.544 22.497 105.239 23.3714 105.239 25.12V25.98C105.239 26.754 105.54 27.3417 106.142 27.743C106.744 28.1444 107.547 28.345 108.55 28.345Z" fill="#181818"/>
<path d="M134.807 32C132.513 32 130.808 31.398 129.69 30.194C128.572 28.99 128.013 27.4564 128.013 25.593V14.757H121.993V9.81202H125.906C126.852 9.81202 127.525 9.62569 127.927 9.25302C128.328 8.88036 128.529 8.19236 128.529 7.18902V1.98602H134.377V9.81202H143.02V14.757H134.377V27.055H143.02V32H134.807Z" fill="#181818"/>
<path d="M164.546 32C163.227 32 162.166 31.6704 161.364 31.011C160.561 30.323 160.088 29.3484 159.945 28.087H159.73C159.328 29.549 158.526 30.6527 157.322 31.398C156.146 32.1434 154.699 32.516 152.979 32.516C150.829 32.516 149.094 31.9427 147.776 30.796C146.486 29.6207 145.841 27.9867 145.841 25.894C145.841 23.572 146.686 21.852 148.378 20.734C150.069 19.616 152.549 19.057 155.817 19.057H159.386V17.939C159.386 16.6204 159.07 15.6314 158.44 14.972C157.838 14.284 156.806 13.94 155.344 13.94C153.996 13.94 152.907 14.198 152.076 14.714C151.244 15.23 150.528 15.9037 149.926 16.735L146.443 13.639C147.188 12.3777 148.349 11.3457 149.926 10.543C151.531 9.71169 153.581 9.29602 156.075 9.29602C159.113 9.29602 161.478 9.99836 163.17 11.403C164.89 12.779 165.75 14.8717 165.75 17.681V27.399H168.201V32H164.546ZM155.387 28.345C156.505 28.345 157.451 28.0727 158.225 27.528C158.999 26.9834 159.386 26.195 159.386 25.163V22.497H155.989C153.38 22.497 152.076 23.3714 152.076 25.12V25.98C152.076 26.754 152.377 27.3417 152.979 27.743C153.581 28.1444 154.383 28.345 155.387 28.345Z" fill="#181818"/>
<path d="M170.205 27.055H175.322V14.757H170.205V9.81202H181.686V16.09H181.987C182.188 15.2874 182.46 14.5134 182.804 13.768C183.177 12.994 183.635 12.3204 184.18 11.747C184.753 11.145 185.441 10.672 186.244 10.328C187.047 9.98402 187.993 9.81202 189.082 9.81202H191.189V15.66H186.459C184.882 15.66 183.693 16.133 182.89 17.079C182.087 17.9964 181.686 19.1287 181.686 20.476V27.055H188.996V32H170.205V27.055Z" fill="#181818"/>
<path d="M63.5199 67.516C59.5066 67.516 56.5252 66.1687 54.5759 63.474C52.6552 60.7507 51.6949 56.9237 51.6949 51.993C51.6949 47.0624 52.6552 43.2497 54.5759 40.555C56.5252 37.8317 59.5066 36.47 63.5199 36.47C65.0679 36.47 66.4296 36.685 67.6049 37.115C68.8089 37.5164 69.8409 38.0897 70.7009 38.835C71.5609 39.5804 72.2632 40.4834 72.8079 41.544C73.3812 42.6047 73.8256 43.7944 74.1409 45.113L68.1209 46.575C67.9489 45.8584 67.7482 45.199 67.5189 44.597C67.2896 43.995 66.9886 43.479 66.6159 43.049C66.2719 42.619 65.8276 42.2894 65.2829 42.06C64.7669 41.802 64.1362 41.673 63.3909 41.673C61.6422 41.673 60.3952 42.361 59.6499 43.737C58.9332 45.0844 58.5749 46.962 58.5749 49.37V54.616C58.5749 57.024 58.9332 58.916 59.6499 60.292C60.3952 61.6394 61.6422 62.313 63.3909 62.313C64.8816 62.313 65.9566 61.8544 66.6159 60.937C67.3039 60.0197 67.8056 58.8444 68.1209 57.411L74.1409 58.873C73.8256 60.1917 73.3812 61.3814 72.8079 62.442C72.2632 63.5027 71.5609 64.42 70.7009 65.194C69.8409 65.9394 68.8089 66.5127 67.6049 66.914C66.4296 67.3154 65.0679 67.516 63.5199 67.516Z" fill="#181818"/>
<path d="M86.2501 67.516C84.5301 67.516 82.9821 67.258 81.6061 66.742C80.2301 66.1973 79.0548 65.4234 78.0801 64.42C77.1341 63.4167 76.4031 62.1984 75.8871 60.765C75.3711 59.3317 75.1131 57.712 75.1131 55.906C75.1131 54.1 75.3711 52.4804 75.8871 51.047C76.4031 49.6137 77.1341 48.3954 78.0801 47.392C79.0548 46.3887 80.2301 45.629 81.6061 45.113C82.9821 44.5684 84.5301 44.296 86.2501 44.296C87.9701 44.296 89.5181 44.5684 90.8941 45.113C92.2701 45.629 93.4311 46.3887 94.3771 47.392C95.3518 48.3954 96.0971 49.6137 96.6131 51.047C97.1291 52.4804 97.3871 54.1 97.3871 55.906C97.3871 57.712 97.1291 59.3317 96.6131 60.765C96.0971 62.1984 95.3518 63.4167 94.3771 64.42C93.4311 65.4234 92.2701 66.1973 90.8941 66.742C89.5181 67.258 87.9701 67.516 86.2501 67.516ZM86.2501 62.786C87.6834 62.786 88.8014 62.3417 89.6041 61.453C90.4068 60.5644 90.8081 59.303 90.8081 57.669V54.143C90.8081 52.509 90.4068 51.2477 89.6041 50.359C88.8014 49.4704 87.6834 49.026 86.2501 49.026C84.8168 49.026 83.6988 49.4704 82.8961 50.359C82.0934 51.2477 81.6921 52.509 81.6921 54.143V57.669C81.6921 59.303 82.0934 60.5644 82.8961 61.453C83.6988 62.3417 84.8168 62.786 86.2501 62.786Z" fill="#181818"/>
<path d="M99.5633 67V44.812H105.927V48.854H106.185C106.443 48.2234 106.759 47.6357 107.131 47.091C107.504 46.5464 107.948 46.0734 108.464 45.672C109.009 45.242 109.625 44.9124 110.313 44.683C111.03 44.425 111.833 44.296 112.721 44.296C113.782 44.296 114.757 44.4824 115.645 44.855C116.534 45.199 117.294 45.7294 117.924 46.446C118.555 47.1627 119.042 48.037 119.386 49.069C119.759 50.101 119.945 51.2907 119.945 52.638V67H113.581V53.498C113.581 50.6314 112.334 49.198 109.84 49.198C109.353 49.198 108.866 49.2697 108.378 49.413C107.92 49.5277 107.504 49.7284 107.131 50.015C106.759 50.273 106.458 50.6027 106.228 51.004C106.028 51.4054 105.927 51.8784 105.927 52.423V67H99.5633Z" fill="#181818"/>
<path d="M122.982 67V44.812H129.346V48.854H129.604C129.862 48.2234 130.177 47.6357 130.55 47.091C130.922 46.5464 131.367 46.0734 131.883 45.672C132.427 45.242 133.044 44.9124 133.732 44.683C134.448 44.425 135.251 44.296 136.14 44.296C137.2 44.296 138.175 44.4824 139.064 44.855C139.952 45.199 140.712 45.7294 141.343 46.446C141.973 47.1627 142.461 48.037 142.805 49.069C143.177 50.101 143.364 51.2907 143.364 52.638V67H137V53.498C137 50.6314 135.753 49.198 133.259 49.198C132.771 49.198 132.284 49.2697 131.797 49.413C131.338 49.5277 130.922 49.7284 130.55 50.015C130.177 50.273 129.876 50.6027 129.647 51.004C129.446 51.4054 129.346 51.8784 129.346 52.423V67H122.982Z" fill="#181818"/>
<path d="M157.107 67.516C153.38 67.516 150.556 66.484 148.636 64.42C146.715 62.356 145.755 59.5467 145.755 55.992C145.755 54.186 145.998 52.5664 146.486 51.133C147.002 49.671 147.718 48.4384 148.636 47.435C149.582 46.403 150.714 45.629 152.033 45.113C153.38 44.5684 154.885 44.296 156.548 44.296C158.21 44.296 159.701 44.5684 161.02 45.113C162.338 45.629 163.456 46.3744 164.374 47.349C165.291 48.3237 165.993 49.5134 166.481 50.918C166.997 52.294 167.255 53.842 167.255 55.562V57.454H152.076V57.841C152.076 59.2744 152.52 60.4354 153.409 61.324C154.297 62.184 155.602 62.614 157.322 62.614C158.64 62.614 159.773 62.3704 160.719 61.883C161.665 61.367 162.482 60.6934 163.17 59.862L166.61 63.603C165.75 64.6637 164.546 65.581 162.998 66.355C161.45 67.129 159.486 67.516 157.107 67.516ZM156.591 48.854C155.215 48.854 154.111 49.284 153.28 50.144C152.477 50.9754 152.076 52.1077 152.076 53.541V53.885H161.02V53.541C161.02 52.079 160.618 50.9324 159.816 50.101C159.042 49.2697 157.967 48.854 156.591 48.854Z" fill="#181818"/>
<path d="M180.826 67.516C179.077 67.516 177.501 67.258 176.096 66.742C174.72 66.1973 173.545 65.4234 172.57 64.42C171.624 63.4167 170.893 62.1984 170.377 60.765C169.861 59.3317 169.603 57.712 169.603 55.906C169.603 54.1 169.861 52.4804 170.377 51.047C170.893 49.6137 171.624 48.3954 172.57 47.392C173.545 46.3887 174.72 45.629 176.096 45.113C177.501 44.5684 179.063 44.296 180.783 44.296C183.22 44.296 185.169 44.7977 186.631 45.801C188.122 46.7757 189.254 48.08 190.028 49.714L185.126 52.38C184.725 51.52 184.194 50.8034 183.535 50.23C182.904 49.6567 181.987 49.37 180.783 49.37C179.321 49.37 178.189 49.8 177.386 50.66C176.612 51.4914 176.225 52.638 176.225 54.1V57.712C176.225 59.174 176.612 60.335 177.386 61.195C178.189 62.0264 179.35 62.442 180.869 62.442C182.102 62.442 183.062 62.1554 183.75 61.582C184.467 61.0087 185.069 60.2634 185.556 59.346L190.372 62.098C189.569 63.732 188.394 65.0507 186.846 66.054C185.327 67.0287 183.32 67.516 180.826 67.516Z" fill="#181818"/>
<path d="M205.061 67C202.768 67 201.062 66.398 199.944 65.194C198.826 63.99 198.267 62.4564 198.267 60.593V49.757H192.247V44.812H196.16C197.106 44.812 197.78 44.6257 198.181 44.253C198.582 43.8804 198.783 43.1924 198.783 42.189V36.986H204.631V44.812H213.274V49.757H204.631V62.055H213.274V67H205.061Z" fill="#181818"/>
<path fill-rule="evenodd" clip-rule="evenodd" d="M32.631 0.0551693C31.2925 -0.0701311 29.9182 0.0153153 28.9845 0.339083C26.6385 1.15253 24.7453 2.74588 24.1218 4.43127C23.6354 5.74705 22.9815 9.03983 22.9815 10.1746C22.9815 10.8201 22.8067 11.2138 22.3328 11.635C21.7155 12.1837 21.7993 14.1143 21.7993 14.1143C21.7993 14.1143 22.7289 18.5661 23.5474 18.922C24.2774 19.2393 25.035 22.2861 24.9266 24.4693L24.8513 25.9885L23.0236 27.4486C20.2945 29.6287 17.6862 31.0278 14.3944 32.0774C10.7725 33.2321 10.2482 33.5401 7.97706 35.8456C4.95174 38.917 2.70077 43.3723 2.37318 46.9375C2.26748 48.0908 2.3657 48.6883 2.88675 50.0521C3.4078 51.4159 2.67883 53.6198 2.67883 53.6198C1.89501 55.3492 1.79654 55.8439 1.452 59.7877C1.15638 63.1702 0.892003 64.8616 0 66.718H9.44019C9.55794 65.7271 9.69914 65.4245 9.97299 64.9233C10.681 63.6273 13.0567 58.5342 13.0567 58.5342C13.0567 58.5342 13.5802 60.2391 15.1341 64.7773C15.4002 65.5544 15.6157 66.1856 15.7884 66.718H32.631V26H30.4318L32.631 21.1318V0.0551693Z" fill="url(#paint0_linear_11_3)"/>
<path fill-rule="evenodd" clip-rule="evenodd" d="M32.631 0.0551693C31.2925 -0.0701311 29.9182 0.0153153 28.9845 0.339083C26.6385 1.15253 24.7453 2.74588 24.1218 4.43127C23.6354 5.74705 22.9815 9.03983 22.9815 10.1746C22.9815 10.8201 22.8067 11.2138 22.3328 11.635C21.7155 12.1837 21.7993 14.1143 21.7993 14.1143C21.7993 14.1143 22.7289 18.5661 23.5474 18.922C24.2774 19.2393 25.035 22.2861 24.9266 24.4693L24.8513 25.9885L23.0236 27.4486C20.2945 29.6287 17.6862 31.0278 14.3944 32.0774C10.7725 33.2321 10.2482 33.5401 7.97706 35.8456C4.95174 38.917 2.70077 43.3723 2.37318 46.9375C2.26748 48.0908 2.3657 48.6883 2.88675 50.0521C3.4078 51.4159 2.67883 53.6198 2.67883 53.6198C1.89501 55.3492 1.79654 55.8439 1.452 59.7877C1.15638 63.1702 0.892003 64.8616 0 66.718H9.44019C9.55794 65.7271 9.69914 65.4245 9.97299 64.9233C10.681 63.6273 13.0567 58.5342 13.0567 58.5342C13.0567 58.5342 13.5802 60.2391 15.1341 64.7773C15.4002 65.5544 15.6157 66.1856 15.7884 66.718H32.631V26H30.4318L32.631 21.1318V0.0551693Z" fill="url(#paint1_linear_11_3)"/>
<defs>
<linearGradient id="paint0_linear_11_3" x1="-38.6319" y1="73.6607" x2="-9.63808" y2="101.203" gradientUnits="userSpaceOnUse">
<stop stop-color="#FFE175"/>
<stop offset="0.53125" stop-color="#FBA3A3"/>
<stop offset="1" stop-color="#FC52FF"/>
</linearGradient>
<linearGradient id="paint1_linear_11_3" x1="-38.6319" y1="73.6607" x2="-9.63808" y2="101.203" gradientUnits="userSpaceOnUse">
<stop stop-color="#FFE175"/>
<stop offset="0.53125" stop-color="#FBA3A3"/>
<stop offset="1" stop-color="#FC52FF"/>
</linearGradient>
</defs>
</svg>
