<svg id="svg" version="1.1" xmlns="http://www.w3.org/2000/svg" xmlns:xlink="http://www.w3.org/1999/xlink" width="400" height="168" viewBox="0, 0, 400,168"><g id="svgg"><path id="path0" d="M38.992 0.504 C 38.992 1.042,38.978 1.048,37.731 1.077 L 37.059 1.092 37.092 2.059 C 37.128 3.132,37.238 3.054,35.630 3.095 L 35.042 3.109 34.992 4.076 C 34.937 5.130,34.890 5.162,33.548 5.053 C 33.160 5.022,33.084 5.069,33.168 5.289 C 33.230 5.449,33.204 5.521,33.107 5.461 C 33.006 5.399,32.941 5.691,32.941 6.209 L 32.941 7.059 32.033 7.059 L 31.125 7.059 31.008 8.067 L 30.891 9.076 29.983 9.076 L 29.076 9.076 29.076 9.983 L 29.076 10.891 28.067 11.008 L 27.059 11.125 27.059 12.033 L 27.059 12.941 25.252 12.944 C 23.260 12.947,22.927 13.050,23.076 13.621 C 23.328 14.585,23.061 14.938,22.039 14.992 L 21.092 15.042 21.077 15.714 C 21.043 17.149,21.106 17.068,20.042 17.063 L 19.076 17.059 19.076 17.927 C 19.076 19.002,19.002 19.076,17.926 19.076 L 17.059 19.076 17.078 20.042 C 17.100 21.106,17.158 21.059,15.798 21.080 L 15.042 21.092 14.992 22.059 C 14.937 23.106,14.903 23.133,13.716 23.037 C 13.107 22.987,12.947 23.237,12.944 24.244 C 12.941 25.106,12.858 25.156,11.579 25.060 C 10.914 25.010,10.924 24.632,10.924 49.855 L 10.924 73.109 8.992 73.109 L 7.059 73.109 7.059 74.034 L 7.059 74.958 6.429 74.960 C 5.168 74.965,5.042 75.065,5.042 76.062 L 5.042 76.958 4.076 77.008 L 3.109 77.059 3.095 77.647 C 3.086 77.971,3.068 78.443,3.052 78.697 L 3.025 79.160 1.513 79.160 L 0.000 79.160 0.000 84.118 L 0.000 89.076 0.504 89.076 L 1.008 89.076 1.038 91.387 C 1.054 92.658,1.049 93.981,1.026 94.328 L 0.986 94.958 2.005 94.958 L 3.025 94.958 3.050 97.437 C 3.063 98.800,3.057 100.162,3.036 100.462 L 2.999 101.008 4.020 101.008 L 5.042 101.008 5.042 103.025 L 5.042 105.042 6.047 105.042 L 7.051 105.042 7.097 108.025 L 7.143 111.008 8.109 111.059 L 9.076 111.109 9.076 114.042 L 9.076 116.975 13.127 116.975 L 17.179 116.975 17.119 120.966 L 17.059 124.958 18.025 125.008 L 18.992 125.059 19.025 128.202 C 19.043 129.930,19.038 131.677,19.014 132.084 C 18.961 132.967,19.120 133.103,20.210 133.107 L 21.008 133.109 21.038 134.412 C 21.054 135.128,21.049 135.998,21.026 136.345 L 20.986 136.975 22.005 136.975 C 23.132 136.975,23.147 136.997,23.048 138.445 L 23.011 138.992 24.026 138.992 L 25.042 138.992 25.042 140.000 L 25.042 141.008 26.050 141.008 L 27.059 141.008 27.059 142.017 L 27.059 143.025 28.067 143.025 L 29.076 143.025 29.076 144.034 L 29.076 145.042 29.983 145.042 L 30.891 145.042 31.008 146.050 L 31.125 147.059 32.033 147.059 L 32.941 147.059 32.941 147.801 C 32.941 148.978,33.025 149.076,34.043 149.076 L 34.941 149.076 34.992 150.042 L 35.042 151.008 36.069 151.058 L 37.097 151.107 37.078 152.066 L 37.059 153.025 38.067 153.109 L 39.076 153.193 39.023 154.017 C 38.960 154.993,39.096 155.120,40.210 155.123 C 41.077 155.126,41.046 155.081,41.077 156.387 L 41.092 157.059 42.039 157.109 C 43.077 157.163,43.285 157.449,43.076 158.529 L 42.986 158.992 44.014 158.992 L 45.042 158.992 45.042 160.000 L 45.042 161.008 46.050 161.008 L 47.059 161.008 47.059 162.017 L 47.059 163.025 48.067 163.025 L 49.076 163.025 49.076 164.034 L 49.076 165.042 49.983 165.042 L 50.891 165.042 51.008 166.050 L 51.125 167.059 52.033 167.059 C 52.930 167.059,52.941 167.065,52.941 167.563 L 52.941 168.067 73.950 168.067 L 94.958 168.067 94.958 167.563 L 94.958 167.059 95.966 167.059 L 96.975 167.059 96.975 166.050 L 96.975 165.042 97.983 165.042 L 98.992 165.042 98.992 164.034 L 98.992 163.025 100.013 163.025 L 101.034 163.025 101.005 162.395 C 100.939 160.958,100.902 161.008,102.017 161.008 L 103.025 161.008 103.025 160.000 L 103.025 158.992 104.034 158.992 L 105.042 158.992 105.042 158.076 L 105.042 157.160 106.008 157.109 L 106.975 157.059 107.025 156.101 L 107.075 155.142 108.033 155.092 L 108.992 155.042 109.042 154.076 L 109.092 153.109 110.008 153.109 L 110.924 153.109 110.924 152.101 L 110.924 151.092 111.933 151.092 L 112.941 151.092 112.941 150.084 C 112.941 148.969,112.891 149.006,114.328 149.072 L 114.958 149.101 114.958 148.080 L 114.958 147.059 115.966 147.059 L 116.975 147.059 116.975 146.050 L 116.975 145.042 117.983 145.042 L 118.992 145.042 118.992 144.034 L 118.992 143.025 120.013 143.025 L 121.034 143.025 121.005 142.395 C 120.939 140.958,120.902 141.008,122.017 141.008 L 123.025 141.008 123.025 140.000 L 123.025 138.992 124.034 138.992 L 125.042 138.992 125.042 137.983 L 125.042 136.975 126.050 136.975 L 127.059 136.975 127.059 134.042 L 127.059 131.109 128.025 131.059 L 128.992 131.008 129.036 126.008 L 129.081 121.008 130.003 121.008 L 130.924 121.008 130.924 118.992 L 130.924 116.975 133.950 116.975 L 136.975 116.975 136.975 116.059 L 136.975 115.143 137.941 115.092 L 138.908 115.042 138.955 113.075 L 139.002 111.109 139.963 111.059 L 140.924 111.008 140.970 108.033 L 141.016 105.059 141.979 105.008 L 142.941 104.958 142.988 102.991 L 143.036 101.025 143.997 100.975 L 144.958 100.924 145.005 98.950 L 145.053 96.975 146.056 96.975 L 147.059 96.975 147.059 94.042 L 147.059 91.109 148.025 91.059 L 148.992 91.008 149.039 89.034 L 149.086 87.059 150.005 87.059 L 150.924 87.059 150.924 84.010 L 150.924 80.961 150.000 81.057 L 149.076 81.152 149.073 80.282 C 149.069 78.944,149.066 78.942,146.913 79.082 L 145.042 79.203 145.042 78.291 C 145.042 77.171,144.862 76.975,143.832 76.975 L 143.025 76.975 143.025 76.070 C 143.025 75.064,142.902 74.965,141.639 74.960 L 141.008 74.958 141.008 74.034 L 141.008 73.109 137.983 73.109 L 134.958 73.109 134.958 49.068 L 134.958 25.027 134.412 25.065 C 132.963 25.164,132.941 25.149,132.941 24.020 L 132.941 22.999 132.395 23.036 C 130.930 23.137,130.924 23.134,130.924 21.995 L 130.924 20.964 130.231 21.057 C 129.217 21.193,129.076 21.088,129.073 20.192 C 129.069 19.053,128.936 18.922,127.916 19.057 L 127.059 19.171 127.056 18.283 C 127.053 17.043,126.933 16.912,125.900 17.011 L 125.042 17.094 125.042 16.227 C 125.042 15.155,124.854 14.958,123.832 14.958 L 123.025 14.958 123.025 14.052 C 123.025 13.024,122.930 12.941,121.751 12.941 L 121.008 12.941 121.008 12.033 L 121.008 11.125 120.000 11.008 L 118.992 10.891 118.992 9.983 L 118.992 9.076 117.983 9.076 L 116.975 9.076 116.975 8.067 L 116.975 7.059 115.966 7.059 L 114.958 7.059 114.958 6.040 C 114.958 5.031,114.953 5.021,114.496 5.057 C 114.242 5.076,113.788 5.081,113.487 5.067 L 112.941 5.042 112.941 4.026 L 112.941 3.011 112.395 3.048 C 112.095 3.069,111.229 3.072,110.471 3.055 L 109.092 3.025 109.042 2.059 L 108.992 1.092 108.319 1.077 C 107.072 1.048,107.059 1.042,107.059 0.504 L 107.059 0.000 73.025 0.000 L 38.992 0.000 38.992 0.504 M103.025 31.008 L 103.025 56.975 74.034 56.975 L 45.042 56.975 45.042 31.008 L 45.042 5.042 74.034 5.042 L 103.025 5.042 103.025 31.008 M38.992 33.941 L 38.992 56.958 38.025 57.008 L 37.059 57.059 37.059 58.067 L 37.059 59.076 35.134 59.036 C 32.940 58.991,32.948 58.987,32.944 60.296 L 32.941 61.179 32.036 61.073 L 31.130 60.967 31.011 61.996 L 30.891 63.025 29.689 63.054 C 29.028 63.069,28.166 63.063,27.773 63.040 L 27.059 62.997 27.059 64.020 L 27.059 65.042 25.672 65.071 C 24.910 65.088,24.008 65.083,23.669 65.062 L 23.053 65.022 23.061 65.962 C 23.071 67.116,23.081 67.107,21.919 67.107 L 20.972 67.107 21.058 67.635 C 21.105 67.926,21.105 68.364,21.058 68.610 L 20.973 69.056 18.974 69.108 L 16.974 69.160 16.974 49.126 L 16.975 29.092 17.941 29.042 L 18.908 28.992 18.958 28.033 L 19.008 27.075 19.966 27.025 L 20.924 26.975 20.975 26.014 L 21.025 25.053 22.991 25.005 L 24.958 24.958 25.008 23.992 C 25.049 23.220,25.117 23.022,25.345 23.012 C 25.502 23.004,25.933 22.985,26.303 22.970 L 26.975 22.941 27.025 21.983 L 27.075 21.025 28.033 20.975 L 28.992 20.924 29.042 19.958 L 29.092 18.992 30.008 18.992 L 30.924 18.992 30.924 17.983 L 30.924 16.975 31.933 16.975 L 32.941 16.975 32.941 15.966 L 32.941 14.958 33.950 14.958 L 34.958 14.958 34.958 13.950 L 34.958 12.941 35.966 12.941 L 36.975 12.941 36.975 11.933 L 36.975 10.924 37.983 10.924 L 38.992 10.924 38.992 33.941 M109.076 11.933 L 109.076 12.941 109.983 12.941 L 110.891 12.941 111.008 13.950 L 111.125 14.958 113.033 14.958 L 114.941 14.958 114.992 15.924 L 115.042 16.891 116.083 16.941 L 117.123 16.990 117.091 17.949 L 117.059 18.908 118.025 18.958 C 118.618 18.989,119.001 19.086,119.017 19.210 C 119.031 19.321,119.050 19.752,119.059 20.168 L 119.076 20.924 120.042 20.975 C 121.091 21.029,121.047 20.974,121.077 22.269 L 121.092 22.941 121.985 22.965 C 123.076 22.995,123.041 22.960,123.079 24.059 L 123.109 24.958 124.067 25.008 L 125.026 25.058 125.076 26.017 L 125.126 26.975 126.084 27.025 L 127.043 27.075 127.093 28.033 L 127.143 28.992 128.109 29.042 L 129.076 29.092 129.076 49.126 L 129.076 69.160 127.067 69.108 L 125.058 69.056 125.008 68.099 L 124.958 67.143 124.059 67.112 C 122.960 67.075,122.995 67.110,122.965 66.018 L 122.941 65.126 122.353 65.111 C 122.029 65.103,121.145 65.084,120.387 65.069 L 119.008 65.042 118.958 64.076 L 118.908 63.109 118.235 63.094 C 117.866 63.085,116.977 63.066,116.261 63.052 L 114.958 63.025 114.958 62.002 L 114.958 60.980 113.992 61.036 L 113.025 61.092 112.941 60.084 L 112.857 59.076 110.966 59.137 L 109.076 59.199 109.076 58.288 C 109.076 57.171,108.895 56.975,107.866 56.975 L 107.059 56.975 107.059 33.950 L 107.059 10.924 108.067 10.924 L 109.076 10.924 109.076 11.933 M183.089 37.227 C 183.056 37.319,183.042 37.584,183.058 37.815 C 183.074 38.046,183.073 38.453,183.056 38.718 L 183.025 39.201 181.050 39.138 L 179.076 39.076 179.076 39.944 C 179.076 41.020,179.003 41.092,177.927 41.092 L 177.059 41.092 177.122 43.067 L 177.184 45.042 176.701 45.069 C 176.436 45.084,175.954 45.103,175.630 45.111 L 175.042 45.126 175.042 54.034 L 175.042 62.941 176.112 62.992 L 177.182 63.042 177.121 65.009 L 177.059 66.975 178.025 67.025 C 178.618 67.056,179.001 67.154,179.017 67.277 C 179.031 67.388,179.050 67.819,179.059 68.235 L 179.076 68.992 181.050 69.039 C 183.254 69.092,183.058 68.959,183.095 70.420 L 183.109 71.008 193.025 71.008 L 202.941 71.008 202.941 67.059 L 202.941 63.109 198.992 63.109 L 195.042 63.109 194.992 64.076 L 194.941 65.042 192.933 65.042 L 190.924 65.042 190.924 64.020 L 190.924 62.997 190.210 63.040 C 189.817 63.063,188.947 63.069,188.277 63.054 L 187.059 63.025 187.056 62.227 C 187.053 61.069,186.922 60.939,185.900 61.074 L 185.042 61.188 185.042 58.275 C 185.042 54.974,185.036 54.958,183.832 54.958 L 183.025 54.958 183.025 53.950 L 183.025 52.941 184.034 52.941 L 185.042 52.941 185.042 50.008 L 185.042 47.076 186.008 47.025 L 186.975 46.975 187.025 46.008 L 187.076 45.042 189.000 45.042 L 190.924 45.042 190.924 44.034 L 190.924 43.025 191.933 43.025 L 192.941 43.025 192.944 43.824 C 192.948 45.120,192.655 45.052,198.079 45.003 L 202.941 44.958 202.941 41.036 L 202.941 37.113 193.046 37.086 C 186.577 37.068,183.129 37.117,183.089 37.227 M209.137 37.227 C 209.102 37.319,209.093 44.958,209.116 54.202 L 209.160 71.008 214.034 71.008 L 218.908 71.008 218.952 65.966 L 218.996 60.924 220.002 60.981 C 221.101 61.044,221.023 60.943,221.072 62.353 L 221.092 62.941 222.059 62.992 C 223.122 63.047,223.031 62.917,223.090 64.454 C 223.109 64.947,223.131 64.959,224.070 65.008 L 225.031 65.058 225.079 67.025 L 225.126 68.992 226.084 69.042 L 227.043 69.092 227.093 70.050 L 227.143 71.008 232.017 71.008 L 236.891 71.008 236.937 68.003 L 236.983 64.997 236.427 65.087 C 235.185 65.288,234.958 65.119,234.958 63.992 L 234.958 62.981 234.285 63.071 C 232.968 63.248,232.957 63.232,232.904 61.032 L 232.857 59.076 231.891 59.095 L 230.924 59.115 230.924 58.045 L 230.924 56.975 231.933 56.975 L 232.941 56.975 232.941 55.966 L 232.941 54.958 233.950 54.958 L 234.958 54.958 234.958 47.960 L 234.958 40.962 234.160 41.049 C 233.001 41.176,232.941 41.122,232.941 39.962 L 232.941 38.944 231.941 39.048 L 230.940 39.153 230.890 38.134 L 230.840 37.114 220.021 37.087 C 212.937 37.068,209.179 37.117,209.137 37.227 M239.063 37.227 C 239.033 37.319,239.024 38.643,239.042 40.168 L 239.076 42.941 240.042 42.992 L 241.008 43.042 241.035 44.336 C 241.049 45.048,241.068 45.933,241.077 46.303 L 241.092 46.975 242.059 47.025 C 243.114 47.080,243.060 47.008,243.095 48.403 L 243.109 48.992 244.076 49.042 L 245.042 49.092 245.042 51.017 L 245.042 52.941 246.050 52.941 L 247.059 52.941 247.059 54.958 L 247.059 56.975 248.065 56.975 L 249.072 56.975 249.116 63.992 L 249.160 71.008 254.034 71.008 L 258.908 71.008 258.951 63.992 L 258.995 56.975 260.002 56.975 L 261.008 56.975 261.008 55.966 L 261.008 54.958 262.017 54.958 L 263.025 54.958 263.025 53.034 L 263.025 51.109 263.992 51.059 L 264.958 51.008 265.005 49.042 L 265.053 47.075 266.014 47.025 L 266.975 46.975 267.025 46.017 L 267.075 45.058 268.033 45.008 L 268.992 44.958 269.039 42.983 L 269.086 41.008 270.011 41.008 L 270.935 41.008 270.888 39.050 L 270.840 37.092 264.958 37.092 L 259.076 37.093 259.031 38.997 C 258.979 41.212,259.042 41.092,257.927 41.092 L 257.059 41.092 257.122 43.067 L 257.184 45.042 256.701 45.069 C 256.436 45.084,255.954 45.103,255.630 45.111 L 255.042 45.126 254.992 46.074 C 254.937 47.132,254.789 47.238,253.563 47.095 L 252.941 47.022 252.941 45.002 L 252.941 42.981 252.389 43.071 C 252.085 43.120,251.631 43.121,251.381 43.073 L 250.924 42.986 250.924 40.965 L 250.924 38.945 250.000 39.040 L 249.076 39.135 249.073 38.265 C 249.069 36.996,249.336 37.059,243.970 37.059 C 240.883 37.059,239.097 37.120,239.063 37.227 M275.044 37.283 C 274.818 37.872,274.959 70.716,275.188 70.906 C 275.352 71.042,276.810 71.085,280.188 71.053 L 284.958 71.008 285.002 65.000 L 285.046 58.992 291.011 58.992 L 296.975 58.992 296.975 57.983 L 296.975 56.975 297.983 56.975 L 298.992 56.975 298.992 55.966 L 298.992 54.958 300.002 54.958 L 301.012 54.958 300.968 48.025 L 300.924 41.092 300.168 41.076 C 299.752 41.067,299.321 41.048,299.210 41.034 C 299.086 41.018,298.989 40.635,298.958 40.042 L 298.908 39.076 297.949 39.108 L 296.990 39.140 296.941 38.127 L 296.891 37.114 286.010 37.087 C 277.085 37.064,275.114 37.099,275.044 37.283 M305.112 37.129 C 305.074 37.167,305.042 38.510,305.042 40.112 L 305.042 43.025 310.000 43.025 L 314.958 43.025 314.958 56.870 C 314.958 68.395,314.997 70.747,315.188 70.906 C 315.352 71.042,316.810 71.085,320.188 71.053 L 324.958 71.008 325.001 57.017 L 325.044 43.025 328.996 43.025 L 332.949 43.025 332.903 40.073 L 332.857 37.121 319.020 37.090 C 311.409 37.073,305.151 37.090,305.112 37.129 M345.112 37.129 C 345.074 37.167,345.042 37.636,345.042 38.170 L 345.042 39.141 344.076 39.108 L 343.109 39.076 343.079 39.975 C 343.041 41.081,343.029 41.092,341.961 41.092 L 341.092 41.092 341.086 41.968 C 341.077 43.049,341.032 43.094,339.951 43.102 L 339.076 43.109 339.076 43.977 C 339.076 45.043,339.061 45.058,337.987 45.095 L 337.118 45.126 337.118 54.034 L 337.117 62.941 338.054 62.992 C 338.625 63.022,339.002 63.121,339.017 63.244 C 339.031 63.355,339.050 63.786,339.059 64.202 L 339.076 64.958 339.968 64.982 C 341.089 65.012,340.988 64.817,341.044 67.067 L 341.092 68.992 343.059 69.039 L 345.026 69.086 345.076 70.047 L 345.126 71.008 354.034 71.008 L 362.941 71.008 362.991 70.047 L 363.042 69.086 365.008 69.039 L 366.975 68.992 367.022 67.017 C 367.064 65.287,367.105 65.040,367.358 65.028 C 367.517 65.021,367.950 65.002,368.319 64.986 L 368.992 64.958 369.042 63.992 L 369.092 63.025 370.008 63.025 L 370.924 63.025 370.924 54.013 L 370.924 45.000 370.462 45.091 C 369.382 45.304,369.096 45.096,369.041 44.058 L 368.992 43.109 368.319 43.094 C 367.014 43.063,367.059 43.094,367.056 42.227 C 367.053 41.113,366.926 40.976,365.950 41.039 L 365.126 41.092 365.042 40.084 L 364.958 39.076 363.999 39.095 L 363.040 39.114 362.991 38.111 L 362.941 37.109 354.062 37.084 C 349.178 37.070,345.151 37.090,345.112 37.129 M223.048 43.487 C 223.060 43.742,223.079 44.176,223.090 44.454 C 223.108 44.922,223.158 44.960,223.782 44.986 C 224.151 45.002,224.582 45.021,224.740 45.028 C 224.968 45.039,225.035 45.237,225.076 46.008 L 225.126 46.975 226.092 47.025 L 227.059 47.076 227.059 48.076 L 227.059 49.076 226.050 49.076 L 225.042 49.076 225.042 50.084 L 225.042 51.092 224.014 51.092 L 222.986 51.092 223.076 51.555 C 223.125 51.809,223.124 52.225,223.074 52.479 L 222.983 52.941 220.987 52.941 L 218.992 52.941 218.992 47.983 L 218.992 43.025 221.008 43.025 L 223.025 43.025 223.048 43.487 M289.076 44.034 L 289.076 45.042 289.992 45.042 L 290.908 45.042 291.022 46.050 L 291.136 47.059 292.039 47.059 L 292.941 47.059 292.941 48.067 L 292.941 49.076 292.033 49.076 L 291.125 49.076 291.008 50.084 L 290.891 51.092 289.983 51.092 L 289.076 51.092 289.076 52.017 L 289.076 52.941 287.059 52.941 L 285.042 52.941 285.042 47.983 L 285.042 43.025 287.059 43.025 L 289.076 43.025 289.076 44.034 M354.992 43.992 L 355.042 44.958 357.017 45.005 C 358.414 45.039,358.999 45.113,359.017 45.257 C 359.031 45.370,359.050 45.803,359.059 46.218 L 359.076 46.975 360.044 47.025 L 361.012 47.076 360.968 54.084 L 360.924 61.092 360.000 61.092 L 359.076 61.092 359.076 61.961 C 359.076 63.075,359.200 63.010,356.965 63.063 L 355.042 63.109 354.992 64.076 L 354.941 65.042 353.941 65.042 L 352.941 65.042 352.941 64.020 L 352.941 62.997 352.227 63.040 C 351.834 63.063,350.964 63.069,350.294 63.054 L 349.076 63.025 349.073 62.227 C 349.069 61.069,348.939 60.939,347.916 61.074 L 347.059 61.188 347.059 54.132 L 347.059 47.076 348.025 47.025 L 348.992 46.975 349.042 46.008 L 349.092 45.042 351.017 45.042 L 352.941 45.042 352.941 44.034 L 352.941 43.025 353.941 43.025 L 354.941 43.025 354.992 43.992 M54.992 61.975 L 55.042 62.941 56.069 62.991 L 57.097 63.040 57.078 63.999 L 57.059 64.958 57.951 64.982 C 59.051 65.012,59.076 65.036,59.076 66.107 L 59.076 66.975 60.042 67.025 L 61.008 67.076 61.035 68.370 C 61.049 69.082,61.068 69.966,61.077 70.336 L 61.092 71.008 62.059 71.059 C 63.114 71.114,63.060 71.041,63.095 72.437 L 63.109 73.025 64.076 73.076 L 65.042 73.126 65.042 77.151 L 65.042 81.176 43.025 81.176 L 21.008 81.176 21.008 79.160 C 21.008 77.665,20.954 77.139,20.798 77.130 C 20.630 77.119,20.630 77.099,20.798 77.032 C 20.933 76.977,21.008 76.591,21.008 75.952 L 21.008 74.958 23.025 74.958 L 25.042 74.958 25.042 74.042 L 25.042 73.126 26.008 73.076 L 26.975 73.025 27.025 72.059 L 27.076 71.092 29.000 71.092 L 30.924 71.092 30.924 70.084 L 30.924 69.076 32.941 69.076 L 34.958 69.076 34.958 68.076 L 34.958 67.076 35.924 67.025 L 36.891 66.975 36.941 66.014 L 36.991 65.053 38.958 65.005 L 40.924 64.958 40.975 64.000 L 41.025 63.041 41.983 62.991 L 42.941 62.941 42.992 61.975 L 43.042 61.008 48.992 61.008 L 54.941 61.008 54.992 61.975 M81.030 61.387 C 81.042 61.595,81.061 62.029,81.072 62.353 L 81.092 62.941 82.059 62.992 C 83.115 63.047,83.146 63.092,83.035 64.454 C 82.981 65.119,82.989 65.114,81.913 65.089 L 80.982 65.067 81.019 65.685 C 81.039 66.025,81.045 66.926,81.032 67.689 L 81.008 69.076 79.977 69.076 L 78.946 69.076 79.049 69.828 C 79.231 71.158,79.445 71.092,74.940 71.092 L 70.924 71.092 70.924 70.084 L 70.924 69.076 70.008 69.076 L 69.092 69.076 69.042 68.109 C 68.993 67.164,68.981 67.142,68.487 67.123 C 68.210 67.113,67.778 67.094,67.526 67.081 L 67.069 67.059 67.022 65.084 L 66.975 63.109 66.218 63.097 C 65.803 63.091,65.374 63.072,65.267 63.055 C 65.151 63.037,65.049 62.614,65.015 62.017 L 64.958 61.008 72.983 61.008 L 81.008 61.008 81.030 61.387 M105.042 64.034 L 105.042 65.042 107.059 65.042 L 109.076 65.042 109.076 66.050 L 109.076 67.059 111.008 67.059 L 112.941 67.059 112.941 67.866 C 112.941 68.877,113.140 69.076,114.151 69.076 L 114.958 69.076 114.958 69.895 C 114.958 70.996,115.099 71.073,117.237 71.128 L 119.076 71.176 119.023 72.000 C 118.960 72.973,119.097 73.103,120.190 73.107 C 121.069 73.110,121.227 73.342,121.058 74.382 L 120.964 74.958 123.003 74.958 L 125.042 74.958 125.042 75.966 L 125.042 76.975 126.092 76.974 L 127.143 76.974 127.089 78.025 L 127.034 79.076 126.080 79.076 L 125.126 79.076 125.076 80.126 L 125.026 81.176 105.034 81.176 L 85.042 81.176 85.042 78.244 C 85.042 75.628,85.010 75.292,84.748 75.140 C 84.468 74.976,84.468 74.968,84.748 74.963 C 84.991 74.959,85.042 74.800,85.042 74.042 L 85.042 73.126 86.008 73.076 L 86.975 73.025 87.022 71.059 L 87.069 69.092 88.030 69.042 L 88.992 68.992 89.042 68.025 L 89.092 67.059 90.008 67.059 L 90.924 67.059 90.924 66.050 C 90.924 64.935,90.874 64.972,92.311 65.039 L 92.941 65.068 92.941 64.046 L 92.941 63.025 98.992 63.025 L 105.042 63.025 105.042 64.034 M77.032 75.966 L 76.927 76.975 77.959 76.975 L 78.992 76.975 79.017 81.218 C 79.031 83.553,79.050 85.803,79.059 86.218 L 79.076 86.975 79.968 86.999 C 80.459 87.012,80.891 87.053,80.928 87.090 C 80.965 87.127,81.006 89.366,81.019 92.066 L 81.042 96.975 82.034 96.975 L 83.025 96.975 83.048 101.471 C 83.060 103.943,83.079 106.193,83.090 106.471 C 83.109 106.964,83.130 106.976,84.076 107.025 L 85.042 107.076 85.042 108.076 L 85.042 109.076 75.042 109.076 L 65.042 109.076 65.042 108.067 C 65.042 107.224,65.090 107.057,65.336 107.045 C 65.498 107.038,65.933 107.019,66.303 107.003 L 66.975 106.975 67.019 100.966 L 67.063 94.958 68.069 94.958 L 69.076 94.958 69.076 88.992 L 69.076 83.025 70.000 83.025 L 70.924 83.025 70.924 78.992 L 70.924 74.958 74.031 74.958 L 77.138 74.958 77.032 75.966 M137.092 79.958 L 137.059 80.924 138.025 80.975 C 138.618 81.006,139.001 81.103,139.017 81.227 C 139.031 81.338,139.050 81.769,139.059 82.185 L 139.076 82.941 140.042 82.992 C 141.091 83.046,141.047 82.991,141.077 84.286 L 141.092 84.958 142.059 85.008 L 143.025 85.059 143.025 86.059 C 143.025 87.164,143.015 87.172,141.542 87.069 C 140.992 87.030,140.983 87.041,141.025 87.674 C 141.048 88.029,141.054 89.397,141.038 90.714 L 141.008 93.109 139.988 93.109 L 138.968 93.109 139.012 93.908 C 139.036 94.347,139.042 95.216,139.024 95.840 L 138.992 96.975 138.193 96.977 C 136.995 96.981,137.025 96.897,137.043 100.168 L 137.059 103.109 136.050 103.109 L 135.042 103.109 134.995 105.084 C 134.942 107.271,135.005 107.174,133.716 107.070 C 133.029 107.015,132.947 107.250,132.944 109.286 L 132.941 111.092 131.933 111.092 L 130.924 111.092 130.924 108.067 L 130.924 105.042 131.933 105.042 L 132.941 105.042 132.941 96.050 L 132.941 87.059 133.950 87.059 L 134.958 87.059 134.958 83.025 L 134.958 78.992 136.041 78.992 L 137.124 78.992 137.092 79.958 M11.008 82.017 L 11.125 83.025 12.033 83.025 L 12.941 83.025 12.941 91.751 C 12.941 101.742,12.853 101.008,14.052 101.008 L 14.958 101.008 14.958 105.022 L 14.958 109.036 14.502 109.124 C 14.251 109.172,13.797 109.171,13.493 109.121 L 12.941 109.032 12.941 106.014 L 12.941 102.996 11.975 103.053 L 11.008 103.109 10.962 100.175 C 10.911 96.932,10.929 96.981,9.794 96.977 L 9.084 96.975 9.038 94.076 L 8.992 91.176 8.030 91.126 L 7.069 91.076 7.022 89.109 L 6.975 87.143 6.387 87.128 C 4.958 87.092,5.042 87.159,5.042 86.059 L 5.042 85.059 6.008 85.008 L 6.975 84.958 7.025 84.000 L 7.075 83.041 8.033 82.991 L 8.992 82.941 9.042 81.975 L 9.092 81.008 9.992 81.008 L 10.891 81.008 11.008 82.017 M63.025 89.076 L 63.025 93.109 62.032 93.109 L 61.038 93.109 61.017 99.026 C 61.006 102.280,60.958 104.981,60.911 105.027 C 60.864 105.074,60.432 105.115,59.951 105.119 L 59.076 105.126 59.047 109.998 C 59.026 113.565,59.071 114.904,59.215 114.996 C 59.323 115.065,66.502 115.122,75.168 115.123 L 90.924 115.126 90.924 110.061 L 90.924 104.996 90.206 105.095 C 89.039 105.255,89.086 105.453,89.036 100.076 L 88.992 95.210 88.030 95.066 L 87.068 94.921 87.022 89.982 L 86.975 85.042 103.992 85.042 L 121.008 85.042 121.035 85.588 C 121.106 87.081,121.088 87.105,119.908 87.095 L 118.963 87.086 119.005 87.871 C 119.028 88.302,119.034 89.204,119.019 89.874 L 118.992 91.092 117.959 91.092 L 116.927 91.092 117.031 92.093 L 117.136 93.093 116.089 93.143 L 115.042 93.193 115.042 94.118 L 115.042 95.042 114.129 95.081 C 112.961 95.132,112.926 95.200,112.980 97.311 L 113.025 99.076 112.144 99.018 C 111.134 98.952,111.088 99.006,111.040 100.296 L 111.008 101.134 110.042 101.048 L 109.076 100.962 109.076 102.982 C 109.076 105.260,109.071 105.268,107.732 105.088 L 107.059 104.998 107.059 106.009 C 107.059 107.135,106.832 107.305,105.594 107.104 L 105.042 107.015 105.042 108.045 C 105.042 109.183,105.022 109.198,103.575 109.099 L 103.033 109.062 103.027 130.023 C 103.024 141.552,102.986 151.019,102.943 151.062 C 102.900 151.105,102.439 151.140,101.919 151.140 L 100.972 151.140 101.058 151.669 C 101.255 152.881,101.080 153.109,99.958 153.109 L 98.946 153.109 99.049 153.862 C 99.207 155.015,99.110 155.126,97.941 155.126 L 96.927 155.126 97.031 156.127 L 97.136 157.127 96.089 157.177 L 95.042 157.227 95.042 158.151 L 95.042 159.076 94.153 159.076 C 93.094 159.076,92.912 159.271,92.978 160.336 L 93.025 161.092 92.144 161.035 C 91.132 160.969,91.088 161.021,91.040 162.332 L 91.008 163.191 75.000 163.192 L 58.992 163.193 58.992 162.203 C 58.992 160.996,59.016 161.008,56.709 161.008 L 54.958 161.008 54.958 160.104 C 54.958 159.097,54.834 158.998,53.571 158.994 L 52.941 158.992 52.941 158.067 L 52.941 157.143 51.933 157.143 L 50.924 157.143 50.924 156.134 L 50.924 155.126 50.008 155.126 L 49.092 155.126 49.042 154.160 L 48.992 153.193 48.026 153.143 L 47.060 153.093 47.017 132.134 L 46.975 111.176 46.017 111.126 L 45.058 111.076 45.008 110.118 L 44.958 109.160 44.059 109.129 C 42.960 109.092,42.995 109.126,42.965 108.035 L 42.941 107.143 42.353 107.128 C 40.957 107.093,41.030 107.148,40.975 106.092 L 40.924 105.126 40.252 105.110 C 38.899 105.079,39.007 105.249,38.955 103.067 L 38.908 101.092 37.948 101.096 L 36.989 101.100 36.940 100.088 L 36.891 99.076 35.924 99.025 L 34.958 98.975 34.958 98.077 C 34.958 97.059,34.861 96.975,33.684 96.975 L 32.941 96.975 32.941 95.042 L 32.941 93.109 31.933 93.109 L 30.924 93.109 30.924 92.101 L 30.924 91.092 30.008 91.092 L 29.092 91.092 29.042 90.126 C 28.993 89.181,28.981 89.159,28.487 89.140 C 28.210 89.130,27.780 89.111,27.531 89.098 L 27.079 89.076 27.027 87.059 L 26.975 85.041 45.000 85.042 L 63.025 85.042 63.025 89.076 M21.035 90.393 C 21.049 91.101,21.068 91.983,21.077 92.353 L 21.092 93.025 22.041 93.075 C 23.080 93.130,23.287 93.415,23.074 94.496 L 22.983 94.958 24.013 94.958 L 25.042 94.958 25.042 95.966 L 25.042 96.975 26.050 96.975 L 27.059 96.975 27.059 98.992 L 27.059 101.008 28.067 101.008 L 29.076 101.008 29.076 102.017 L 29.076 103.025 29.983 103.025 L 30.891 103.025 31.008 104.034 L 31.125 105.042 32.033 105.042 L 32.941 105.042 32.941 106.793 C 32.941 109.078,32.940 109.076,34.052 109.076 L 34.958 109.076 34.958 109.882 C 34.958 110.907,35.155 111.092,36.240 111.092 L 37.119 111.092 37.024 112.008 C 36.919 113.031,36.943 113.051,38.403 113.148 L 39.076 113.193 39.023 114.017 C 38.960 114.993,39.096 115.120,40.210 115.123 L 41.008 115.126 41.008 130.126 L 41.007 145.126 40.042 145.126 L 39.076 145.126 38.992 144.118 L 38.908 143.109 37.948 143.113 L 36.989 143.117 36.940 142.105 L 36.891 141.092 35.924 141.042 L 34.958 140.992 34.958 140.094 C 34.958 139.076,34.861 138.992,33.684 138.992 L 32.941 138.992 32.941 138.084 L 32.941 137.176 31.933 137.059 L 30.924 136.942 30.924 136.034 L 30.924 135.126 30.008 135.126 L 29.092 135.126 29.042 134.160 L 28.992 133.193 28.030 133.143 L 27.069 133.093 27.022 131.126 L 26.975 129.160 26.387 129.145 C 26.063 129.137,25.628 129.118,25.420 129.103 L 25.042 129.076 25.039 125.252 C 25.036 120.872,25.058 120.952,23.887 121.033 L 23.025 121.092 23.025 118.109 L 23.025 115.126 22.018 115.126 L 21.012 115.126 20.968 107.101 L 20.924 99.076 19.958 99.025 L 18.992 98.975 18.991 93.983 L 18.991 88.992 20.000 89.049 L 21.008 89.105 21.035 90.393 M126.963 105.026 C 126.908 105.081,126.453 105.108,125.952 105.086 L 125.042 105.046 125.042 112.010 L 125.042 118.975 124.076 119.025 L 123.109 119.076 123.058 124.029 C 123.030 126.753,122.976 129.013,122.938 129.051 C 122.900 129.089,122.446 129.116,121.929 129.112 L 120.989 129.103 121.028 129.720 C 121.050 130.059,121.054 130.960,121.038 131.723 L 121.008 133.109 119.977 133.109 L 118.946 133.109 119.049 133.862 C 119.207 135.015,119.110 135.126,117.942 135.126 L 116.928 135.126 117.021 136.029 L 117.114 136.932 116.078 137.079 L 115.042 137.227 115.042 138.151 L 115.042 139.076 114.192 139.020 C 113.117 138.950,112.886 139.189,112.967 140.289 L 113.025 141.092 112.144 141.035 C 111.134 140.969,111.088 141.022,111.040 142.312 L 111.008 143.151 110.042 143.065 L 109.076 142.979 109.076 144.000 C 109.076 145.203,109.047 145.231,107.923 145.098 L 107.059 144.995 107.059 130.985 L 107.059 116.975 108.067 116.975 L 109.076 116.975 109.076 115.042 L 109.076 113.109 110.000 113.109 L 110.924 113.109 110.924 112.101 L 110.924 111.092 111.933 111.092 L 112.941 111.092 112.941 110.084 L 112.941 109.076 113.950 109.076 L 114.958 109.076 114.958 107.059 L 114.958 105.042 115.966 105.042 L 116.975 105.042 116.975 104.034 L 116.975 103.025 117.983 103.025 L 118.992 103.025 118.992 101.008 L 118.992 98.992 120.000 98.992 L 121.008 98.992 121.008 97.983 L 121.008 96.975 122.017 96.975 L 123.025 96.975 123.025 95.966 L 123.025 94.958 124.034 94.958 L 125.042 94.958 125.042 93.034 L 125.042 91.109 126.008 91.059 L 126.975 91.008 127.019 97.967 C 127.043 101.795,127.018 104.971,126.963 105.026 M183.048 93.655 C 183.069 93.956,183.072 94.826,183.055 95.588 L 183.025 96.975 182.227 96.977 C 181.032 96.981,181.059 96.912,181.024 100.078 C 180.987 103.343,181.071 103.109,179.943 103.109 L 179.076 103.109 179.031 105.031 C 178.978 107.272,179.066 107.104,177.944 107.126 L 177.059 107.143 177.121 110.118 L 177.183 113.092 176.113 113.143 L 175.042 113.193 174.996 116.092 L 174.950 118.992 174.147 118.992 C 173.706 118.992,173.254 119.082,173.143 119.193 C 172.910 119.426,172.853 126.492,173.081 126.851 C 173.186 127.017,174.301 127.054,178.079 127.019 L 182.941 126.975 182.987 124.000 L 183.033 121.025 183.995 120.975 L 184.958 120.924 185.008 119.958 L 185.059 118.992 190.005 118.992 L 194.950 118.992 194.996 121.975 L 195.042 124.958 196.083 125.008 L 197.123 125.058 197.091 126.016 L 197.059 126.975 202.017 126.975 L 206.975 126.975 207.024 125.378 C 207.097 123.013,207.072 122.959,205.958 123.075 L 205.042 123.169 205.042 120.246 C 205.042 116.947,205.053 116.975,203.709 116.975 L 203.025 116.975 203.012 114.748 C 203.004 113.523,202.985 112.218,202.970 111.849 L 202.941 111.176 201.980 111.126 L 201.019 111.076 200.972 109.109 L 200.924 107.143 200.336 107.128 C 198.852 107.091,199.005 107.429,198.953 104.076 L 198.908 101.092 197.941 101.097 L 196.975 101.101 196.975 99.140 C 196.975 96.941,196.995 96.975,195.701 96.975 L 194.958 96.975 194.958 95.042 L 194.958 93.109 188.984 93.109 L 183.011 93.109 183.048 93.655 M205.042 96.050 L 205.042 98.992 206.050 98.992 L 207.059 98.992 207.059 102.017 L 207.059 105.042 208.067 105.042 L 209.076 105.042 209.076 107.059 L 209.076 109.076 210.000 109.076 L 210.924 109.076 210.934 111.387 C 210.939 112.658,210.997 114.000,211.062 114.370 L 211.181 115.042 212.061 115.093 L 212.941 115.144 212.941 116.802 C 212.941 118.984,212.945 118.992,214.048 118.992 L 214.950 118.992 214.996 121.975 L 215.042 124.958 216.083 125.008 L 217.123 125.058 217.091 126.016 L 217.059 126.975 222.017 126.975 L 226.975 126.975 227.025 126.017 L 227.075 125.058 228.033 125.008 L 228.992 124.958 229.039 122.983 L 229.086 121.008 230.005 121.008 L 230.924 121.008 230.924 118.067 L 230.924 115.126 231.933 115.126 L 232.941 115.126 232.941 113.109 L 232.941 111.092 233.950 111.092 L 234.958 111.092 234.958 108.067 L 234.958 105.042 235.966 105.042 L 236.975 105.042 236.975 102.017 L 236.975 98.992 237.983 98.992 L 238.992 98.992 238.992 96.050 L 238.992 93.109 234.034 93.109 L 229.076 93.109 229.076 95.042 L 229.076 96.975 228.225 96.975 C 227.708 96.975,227.415 97.040,227.478 97.141 C 227.536 97.236,227.470 97.265,227.324 97.208 C 227.100 97.123,227.061 97.499,227.021 100.110 L 226.975 103.109 226.008 103.053 L 225.042 102.996 225.042 106.036 L 225.042 109.076 224.580 109.106 C 224.326 109.122,223.865 109.118,223.557 109.097 C 223.021 109.059,222.998 109.081,223.035 109.613 C 223.057 109.918,223.063 110.830,223.050 111.639 L 223.025 113.109 222.021 113.109 L 221.016 113.109 220.970 110.126 L 220.924 107.143 220.336 107.128 C 218.852 107.091,219.005 107.429,218.953 104.076 L 218.908 101.092 217.941 101.097 L 216.975 101.101 216.975 98.130 L 216.975 95.159 215.966 95.042 L 214.958 94.925 214.958 94.017 L 214.958 93.109 210.000 93.109 L 205.042 93.109 205.042 96.050 M251.017 94.023 L 250.903 94.936 249.989 95.051 L 249.076 95.165 249.076 97.070 L 249.076 98.975 248.109 99.025 L 247.143 99.076 247.059 101.092 L 246.975 103.109 246.008 103.053 L 245.042 102.996 245.042 106.036 L 245.042 109.076 244.580 109.106 C 244.326 109.122,243.865 109.118,243.557 109.097 C 243.021 109.059,242.998 109.081,243.035 109.613 C 243.057 109.918,243.063 111.284,243.050 112.647 L 243.025 115.126 242.005 115.126 L 240.986 115.126 241.026 115.756 C 241.049 116.103,241.054 116.973,241.038 117.689 L 241.008 118.992 240.210 118.994 C 238.970 118.998,239.021 118.815,239.050 123.109 L 239.076 126.975 244.034 126.975 L 248.992 126.975 249.037 123.992 L 249.083 121.008 250.004 121.008 L 250.924 121.008 250.924 120.000 L 250.924 118.992 255.966 118.992 L 261.008 118.992 261.032 121.387 C 261.045 122.704,261.038 124.065,261.017 124.412 L 260.979 125.042 262.002 125.042 C 263.133 125.042,263.137 125.049,263.036 126.513 L 262.999 127.059 267.974 127.059 L 272.949 127.059 272.903 124.076 L 272.857 121.092 271.890 121.092 L 270.924 121.092 270.924 118.109 L 270.924 115.126 270.005 115.126 L 269.086 115.126 269.039 113.151 L 268.992 111.176 268.029 111.126 L 267.067 111.076 267.021 108.101 L 266.975 105.126 266.218 105.114 C 265.803 105.108,265.370 105.089,265.257 105.072 C 265.113 105.051,265.039 104.461,265.005 103.067 L 264.958 101.092 263.992 101.097 L 263.025 101.101 263.025 98.130 L 263.025 95.159 262.017 95.042 L 261.008 94.925 261.008 94.017 L 261.008 93.109 256.070 93.109 L 251.131 93.109 251.017 94.023 M271.031 93.889 C 270.972 94.318,270.924 95.291,270.924 96.050 C 270.924 96.810,270.972 97.783,271.031 98.212 L 271.138 98.992 276.073 98.992 L 281.008 98.992 281.035 112.311 C 281.049 119.637,281.068 125.933,281.077 126.303 L 281.092 126.975 286.008 127.019 L 290.924 127.064 290.924 113.028 L 290.924 98.992 295.966 98.992 L 301.008 98.992 301.008 96.050 L 301.008 93.109 286.073 93.109 L 271.138 93.109 271.031 93.889 M311.031 93.889 C 310.972 94.318,310.924 95.188,310.924 95.822 L 310.924 96.975 310.158 96.975 C 309.696 96.975,309.433 97.041,309.495 97.141 C 309.553 97.236,309.487 97.265,309.340 97.208 C 309.117 97.123,309.078 97.499,309.038 100.110 L 308.992 103.109 308.025 103.053 L 307.059 102.996 307.059 105.008 L 307.059 107.020 306.603 107.107 C 306.352 107.155,305.898 107.154,305.594 107.104 L 305.042 107.015 305.042 110.062 L 305.042 113.109 304.026 113.109 L 303.011 113.109 303.048 113.655 C 303.069 113.956,303.072 115.279,303.055 116.597 L 303.025 118.992 302.227 118.994 C 300.976 118.998,301.029 118.813,301.062 123.112 L 301.092 126.975 306.008 127.019 L 310.924 127.064 310.924 124.036 L 310.924 121.008 311.933 121.008 L 312.941 121.008 312.941 120.000 L 312.941 118.992 317.983 118.992 L 323.025 118.992 323.050 121.471 C 323.063 122.834,323.057 124.195,323.036 124.496 L 322.999 125.042 324.020 125.042 L 325.042 125.042 325.042 126.050 L 325.042 127.059 330.005 127.059 L 334.969 127.059 334.921 125.084 L 334.874 123.109 333.908 123.142 L 332.941 123.175 332.941 120.178 C 332.941 116.804,333.019 116.982,331.555 116.977 L 330.924 116.975 330.924 114.034 L 330.924 111.092 330.005 111.092 L 329.086 111.092 329.039 109.118 L 328.992 107.143 328.403 107.122 C 326.899 107.070,327.059 107.413,327.056 104.244 C 327.053 100.940,327.051 100.934,325.900 101.045 L 325.042 101.127 325.042 99.253 C 325.042 97.090,324.981 96.975,323.832 96.975 L 323.025 96.975 323.025 95.042 L 323.025 93.109 317.082 93.109 L 311.138 93.109 311.031 93.889 M339.038 110.042 L 339.076 126.975 344.034 126.975 L 348.992 126.975 349.036 121.975 L 349.081 116.975 349.986 116.975 L 350.891 116.975 351.008 117.983 L 351.125 118.992 352.033 118.992 L 352.941 118.992 352.941 119.734 C 352.941 120.912,353.025 121.008,354.046 121.008 L 354.947 121.008 354.995 122.983 L 355.042 124.958 356.083 125.008 L 357.123 125.058 357.091 126.016 L 357.059 126.975 362.017 126.975 L 366.975 126.975 367.023 124.370 C 367.086 120.929,367.111 121.008,365.963 121.008 L 365.042 121.008 365.042 120.202 C 365.042 119.191,364.843 118.992,363.832 118.992 L 363.025 118.992 363.025 117.059 L 363.025 115.126 362.017 115.126 L 361.008 115.126 361.008 114.126 L 361.008 113.126 361.975 113.076 L 362.941 113.025 362.991 112.067 L 363.041 111.109 364.000 111.059 L 364.958 111.008 365.002 104.221 C 365.051 96.635,365.105 96.975,363.845 96.975 L 363.025 96.975 363.025 96.067 L 363.025 95.159 362.017 95.042 L 361.008 94.925 361.008 94.017 L 361.008 93.109 350.004 93.109 L 339.000 93.109 339.038 110.042 M375.020 93.359 C 374.967 93.496,374.950 93.931,374.983 94.325 L 375.042 95.042 374.129 95.081 C 373.061 95.127,372.914 95.282,372.978 96.303 L 373.025 97.059 372.269 97.012 C 370.981 96.931,371.016 96.824,370.950 101.114 C 370.918 103.213,370.942 105.409,371.005 105.994 L 371.119 107.059 372.030 107.059 L 372.941 107.059 372.941 107.801 C 372.941 108.980,373.024 109.076,374.052 109.076 L 374.958 109.076 374.958 109.882 C 374.958 110.907,375.155 111.092,376.244 111.092 L 377.127 111.092 377.026 111.949 C 376.889 113.100,376.899 113.104,380.210 113.107 C 383.378 113.110,383.057 112.960,383.095 114.454 L 383.109 115.042 384.076 115.092 L 385.042 115.143 385.042 116.059 L 385.042 116.975 386.050 116.975 L 387.059 116.975 387.059 117.975 L 387.059 118.975 386.092 119.025 L 385.126 119.076 385.076 120.126 L 385.026 121.176 383.017 121.176 L 381.008 121.176 381.008 120.186 C 381.008 119.438,380.943 119.171,380.743 119.094 C 380.186 118.880,371.287 118.980,371.149 119.202 C 370.970 119.490,370.858 124.619,371.002 125.965 L 371.119 127.059 382.030 127.059 L 392.941 127.059 392.941 126.050 L 392.941 125.042 393.950 125.042 L 394.958 125.042 394.958 123.025 L 394.958 121.008 395.966 121.008 L 396.975 121.008 396.975 117.059 L 396.975 113.109 395.966 113.109 L 394.958 113.109 394.958 111.085 L 394.958 109.061 394.412 109.099 C 392.963 109.198,392.941 109.182,392.941 108.054 L 392.941 107.033 392.395 107.070 C 392.095 107.091,391.229 107.097,390.471 107.083 L 389.092 107.059 389.042 106.092 L 388.992 105.126 388.235 105.109 C 387.819 105.100,386.481 105.081,385.260 105.067 L 383.042 105.042 382.992 104.076 L 382.941 103.109 382.017 103.109 L 381.092 103.109 381.043 102.067 L 380.993 101.026 381.967 100.975 L 382.941 100.924 382.992 99.958 L 383.042 98.992 384.042 98.992 L 385.042 98.992 385.042 100.000 L 385.042 101.008 388.992 101.008 L 392.941 101.008 392.941 100.000 L 392.941 98.992 393.950 98.992 L 394.958 98.992 394.958 96.050 L 394.958 93.109 385.037 93.109 C 376.413 93.109,375.103 93.142,375.020 93.359 M352.941 99.734 C 352.941 100.911,353.025 101.008,354.043 101.008 L 354.941 101.008 354.992 101.975 L 355.042 102.941 356.092 102.991 L 357.143 103.041 357.143 104.042 C 357.143 105.145,357.209 105.092,355.798 105.114 L 355.042 105.126 354.992 106.092 C 354.937 107.140,354.903 107.166,353.716 107.070 C 353.107 107.021,352.947 107.270,352.944 108.277 L 352.941 109.076 351.008 109.076 L 349.076 109.076 349.076 104.034 L 349.076 98.992 351.008 98.992 L 352.941 98.992 352.941 99.734 M317.100 106.421 C 317.068 107.095,317.041 106.588,317.041 105.294 C 317.041 104.000,317.067 103.448,317.099 104.068 C 317.131 104.688,317.132 105.747,317.100 106.421 M256.873 107.048 C 257.177 107.058,257.187 107.197,257.103 109.993 C 257.041 112.089,257.070 112.949,257.205 113.005 C 257.310 113.048,256.393 113.089,255.168 113.096 L 252.941 113.109 252.941 112.101 L 252.941 111.092 253.950 111.092 L 254.958 111.092 254.958 109.034 L 254.958 106.975 255.756 107.006 C 256.195 107.023,256.698 107.042,256.873 107.048 M190.924 111.107 L 190.924 113.109 188.992 113.109 L 187.059 113.109 187.059 111.101 L 187.059 109.092 188.025 109.042 C 188.557 109.014,189.426 109.017,189.958 109.049 L 190.924 109.105 190.924 111.107 M318.165 109.076 L 318.992 109.076 318.992 111.092 L 318.992 113.109 316.975 113.109 L 314.958 113.109 314.958 111.101 L 314.958 109.092 315.924 109.033 C 316.456 109.000,316.991 108.997,317.115 109.025 C 317.238 109.053,317.710 109.076,318.165 109.076 M63.116 123.193 C 63.091 123.239,63.067 123.642,63.063 124.089 C 63.053 125.098,63.023 125.126,61.961 125.126 L 61.092 125.126 61.086 126.001 C 61.077 127.083,61.032 127.128,59.951 127.136 L 59.076 127.143 59.076 128.011 C 59.076 129.080,59.064 129.091,57.958 129.129 L 57.059 129.160 57.092 130.126 L 57.124 131.092 56.587 131.121 C 56.292 131.136,55.824 131.155,55.546 131.163 L 55.042 131.176 55.042 134.034 L 55.042 136.891 56.089 136.941 L 57.136 136.991 57.031 137.991 L 56.927 138.992 57.941 138.992 C 59.110 138.992,59.207 139.103,59.049 140.256 L 58.946 141.008 59.977 141.008 L 61.008 141.008 61.032 142.395 C 61.045 143.158,61.038 144.066,61.017 144.413 L 60.979 145.044 74.985 145.001 L 88.992 144.958 89.039 142.983 L 89.086 141.008 90.005 141.008 L 90.924 141.008 90.924 140.000 L 90.924 138.992 91.933 138.992 L 92.941 138.992 92.941 137.983 L 92.941 136.975 93.950 136.975 L 94.958 136.975 94.958 134.023 L 94.958 131.071 94.496 131.107 C 94.242 131.127,93.788 131.132,93.487 131.118 L 92.941 131.092 92.941 130.077 L 92.941 129.061 92.395 129.099 C 90.945 129.198,90.924 129.184,90.924 128.045 L 90.924 127.015 90.348 127.108 C 89.308 127.277,89.076 127.119,89.073 126.241 C 89.069 125.148,88.939 125.010,87.966 125.073 L 87.143 125.126 87.098 124.454 C 86.998 122.946,88.459 123.109,75.033 123.109 C 68.504 123.109,63.141 123.147,63.116 123.193 M83.050 129.454 C 83.063 129.662,83.082 130.115,83.092 130.462 L 83.109 131.092 75.042 131.093 L 66.975 131.093 67.032 130.084 L 67.089 129.076 75.057 129.076 L 83.025 129.076 83.050 129.454 M83.554 137.098 C 83.045 137.160,82.999 137.210,83.078 137.617 C 83.126 137.865,83.124 138.275,83.074 138.529 L 82.983 138.992 75.030 138.992 L 67.076 138.992 67.026 138.109 C 66.976 137.246,66.962 137.225,66.387 137.123 C 66.063 137.066,69.920 137.021,74.958 137.024 C 79.996 137.026,83.864 137.060,83.554 137.098 " stroke="none" fill="#1c1c1c" fill-rule="evenodd"></path><path id="path1" d="M188.854 37.101 C 191.089 37.127,194.795 37.127,197.089 37.101 C 199.383 37.074,197.555 37.053,193.025 37.053 C 188.496 37.053,186.619 37.074,188.854 37.101 M215.420 37.101 C 217.939 37.127,222.061 37.127,224.580 37.101 C 227.099 37.075,225.038 37.053,220.000 37.053 C 214.962 37.053,212.901 37.075,215.420 37.101 M242.404 37.100 C 243.310 37.130,244.747 37.130,245.597 37.100 C 246.447 37.069,245.706 37.045,243.950 37.045 C 242.193 37.045,241.498 37.070,242.404 37.100 M262.909 37.100 C 264.093 37.129,265.984 37.129,267.111 37.100 C 268.238 37.071,267.269 37.048,264.958 37.048 C 262.647 37.048,261.725 37.072,262.909 37.100 M281.398 37.101 C 283.970 37.127,288.130 37.127,290.642 37.101 C 293.155 37.075,291.050 37.053,285.966 37.053 C 280.882 37.053,278.827 37.075,281.398 37.101 M312.899 37.101 C 316.250 37.126,321.733 37.126,325.084 37.101 C 328.435 37.075,325.693 37.054,318.992 37.054 C 312.290 37.054,309.548 37.075,312.899 37.101 M350.474 37.101 C 352.490 37.128,355.742 37.127,357.700 37.101 C 359.658 37.074,358.008 37.052,354.034 37.052 C 350.059 37.052,348.457 37.074,350.474 37.101 M180.966 39.115 C 181.359 39.150,182.002 39.150,182.395 39.115 C 182.788 39.079,182.466 39.050,181.681 39.050 C 180.895 39.050,180.574 39.079,180.966 39.115 M177.034 43.697 C 177.034 44.483,177.062 44.805,177.098 44.412 C 177.133 44.019,177.133 43.376,177.098 42.983 C 177.062 42.590,177.034 42.912,177.034 43.697 M257.034 43.697 C 257.034 44.483,257.062 44.805,257.098 44.412 C 257.133 44.019,257.133 43.376,257.098 42.983 C 257.062 42.590,257.034 42.912,257.034 43.697 M337.052 54.034 C 337.052 58.286,337.074 60.001,337.101 57.846 C 337.127 55.690,337.127 52.211,337.101 50.115 C 337.074 48.018,337.052 49.782,337.052 54.034 M36.975 58.704 C 36.975 58.925,36.745 58.988,35.756 59.035 L 34.538 59.093 35.762 59.126 C 36.933 59.158,37.464 58.921,37.080 58.536 C 37.022 58.479,36.975 58.554,36.975 58.704 M109.622 59.114 C 109.968 59.150,110.536 59.150,110.882 59.114 C 111.229 59.078,110.945 59.048,110.252 59.048 C 109.559 59.048,109.275 59.078,109.622 59.114 M177.032 64.286 C 177.033 65.025,177.063 65.307,177.098 64.912 C 177.134 64.516,177.133 63.911,177.097 63.567 C 177.061 63.223,177.032 63.546,177.032 64.286 M0.714 79.115 C 1.153 79.150,1.872 79.150,2.311 79.115 C 2.750 79.081,2.391 79.052,1.513 79.052 C 0.634 79.052,0.275 79.081,0.714 79.115 M145.504 79.113 C 145.805 79.150,146.296 79.150,146.597 79.113 C 146.897 79.076,146.651 79.045,146.050 79.045 C 145.450 79.045,145.204 79.076,145.504 79.113 M31.975 81.134 C 38.053 81.159,47.998 81.159,54.076 81.134 C 60.153 81.110,55.181 81.090,43.025 81.090 C 30.870 81.090,25.897 81.110,31.975 81.134 M95.000 81.134 C 100.523 81.159,109.561 81.159,115.084 81.134 C 120.607 81.110,116.088 81.090,105.042 81.090 C 93.996 81.090,89.477 81.110,95.000 81.134 M137.011 100.703 C 136.976 102.940,136.965 103.004,136.597 103.075 L 136.218 103.148 136.602 103.170 C 137.131 103.202,137.161 103.050,137.101 100.579 L 137.048 98.403 137.011 100.703 M317.041 105.294 C 317.041 106.588,317.068 107.095,317.100 106.421 C 317.132 105.747,317.131 104.688,317.099 104.068 C 317.067 103.448,317.041 104.000,317.041 105.294 M357.029 104.034 C 357.029 104.634,357.059 104.880,357.096 104.580 C 357.134 104.279,357.134 103.788,357.096 103.487 C 357.059 103.187,357.029 103.433,357.029 104.034 M257.041 109.328 C 257.041 110.622,257.068 111.129,257.100 110.455 C 257.132 109.781,257.131 108.722,257.099 108.102 C 257.067 107.482,257.041 108.034,257.041 109.328 M177.042 110.756 C 177.042 112.097,177.068 112.645,177.100 111.975 C 177.131 111.305,177.131 110.208,177.100 109.538 C 177.068 108.868,177.042 109.416,177.042 110.756 M17.046 120.336 C 17.046 122.231,17.070 123.006,17.100 122.059 C 17.130 121.111,17.130 119.561,17.100 118.613 C 17.070 117.666,17.046 118.441,17.046 120.336 M381.975 121.133 C 382.553 121.166,383.498 121.166,384.076 121.133 C 384.653 121.100,384.181 121.073,383.025 121.073 C 381.870 121.073,381.397 121.100,381.975 121.133 M69.622 123.151 C 72.557 123.177,77.359 123.177,80.294 123.151 C 83.229 123.125,80.828 123.104,74.958 123.104 C 69.088 123.104,66.687 123.125,69.622 123.151 M66.920 163.151 C 71.327 163.176,78.587 163.176,83.054 163.151 C 87.522 163.126,83.916 163.106,75.042 163.106 C 66.168 163.106,62.513 163.126,66.920 163.151 " stroke="none" fill="#201c1c" fill-rule="evenodd"></path><path id="path2" d="M188.854 37.101 C 191.089 37.127,194.795 37.127,197.089 37.101 C 199.383 37.074,197.555 37.053,193.025 37.053 C 188.496 37.053,186.619 37.074,188.854 37.101 M215.420 37.101 C 217.939 37.127,222.061 37.127,224.580 37.101 C 227.099 37.075,225.038 37.053,220.000 37.053 C 214.962 37.053,212.901 37.075,215.420 37.101 M242.404 37.100 C 243.310 37.130,244.747 37.130,245.597 37.100 C 246.447 37.069,245.706 37.045,243.950 37.045 C 242.193 37.045,241.498 37.070,242.404 37.100 M262.909 37.100 C 264.093 37.129,265.984 37.129,267.111 37.100 C 268.238 37.071,267.269 37.048,264.958 37.048 C 262.647 37.048,261.725 37.072,262.909 37.100 M281.398 37.101 C 283.970 37.127,288.130 37.127,290.642 37.101 C 293.155 37.075,291.050 37.053,285.966 37.053 C 280.882 37.053,278.827 37.075,281.398 37.101 M312.899 37.101 C 316.250 37.126,321.733 37.126,325.084 37.101 C 328.435 37.075,325.693 37.054,318.992 37.054 C 312.290 37.054,309.548 37.075,312.899 37.101 M350.474 37.101 C 352.490 37.128,355.742 37.127,357.700 37.101 C 359.658 37.074,358.008 37.052,354.034 37.052 C 350.059 37.052,348.457 37.074,350.474 37.101 M180.966 39.115 C 181.359 39.150,182.002 39.150,182.395 39.115 C 182.788 39.079,182.466 39.050,181.681 39.050 C 180.895 39.050,180.574 39.079,180.966 39.115 M177.034 43.697 C 177.034 44.483,177.062 44.805,177.098 44.412 C 177.133 44.019,177.133 43.376,177.098 42.983 C 177.062 42.590,177.034 42.912,177.034 43.697 M257.034 43.697 C 257.034 44.483,257.062 44.805,257.098 44.412 C 257.133 44.019,257.133 43.376,257.098 42.983 C 257.062 42.590,257.034 42.912,257.034 43.697 M337.052 54.034 C 337.052 58.286,337.074 60.001,337.101 57.846 C 337.127 55.690,337.127 52.211,337.101 50.115 C 337.074 48.018,337.052 49.782,337.052 54.034 M36.975 58.704 C 36.975 58.925,36.745 58.988,35.756 59.035 L 34.538 59.093 35.762 59.126 C 36.933 59.158,37.464 58.921,37.080 58.536 C 37.022 58.479,36.975 58.554,36.975 58.704 M109.622 59.114 C 109.968 59.150,110.536 59.150,110.882 59.114 C 111.229 59.078,110.945 59.048,110.252 59.048 C 109.559 59.048,109.275 59.078,109.622 59.114 M177.032 64.286 C 177.033 65.025,177.063 65.307,177.098 64.912 C 177.134 64.516,177.133 63.911,177.097 63.567 C 177.061 63.223,177.032 63.546,177.032 64.286 M0.714 79.115 C 1.153 79.150,1.872 79.150,2.311 79.115 C 2.750 79.081,2.391 79.052,1.513 79.052 C 0.634 79.052,0.275 79.081,0.714 79.115 M145.504 79.113 C 145.805 79.150,146.296 79.150,146.597 79.113 C 146.897 79.076,146.651 79.045,146.050 79.045 C 145.450 79.045,145.204 79.076,145.504 79.113 M31.975 81.134 C 38.053 81.159,47.998 81.159,54.076 81.134 C 60.153 81.110,55.181 81.090,43.025 81.090 C 30.870 81.090,25.897 81.110,31.975 81.134 M95.000 81.134 C 100.523 81.159,109.561 81.159,115.084 81.134 C 120.607 81.110,116.088 81.090,105.042 81.090 C 93.996 81.090,89.477 81.110,95.000 81.134 M137.011 100.703 C 136.976 102.940,136.965 103.004,136.597 103.075 L 136.218 103.148 136.602 103.170 C 137.131 103.202,137.161 103.050,137.101 100.579 L 137.048 98.403 137.011 100.703 M317.041 105.294 C 317.041 106.588,317.068 107.095,317.100 106.421 C 317.132 105.747,317.131 104.688,317.099 104.068 C 317.067 103.448,317.041 104.000,317.041 105.294 M357.029 104.034 C 357.029 104.634,357.059 104.880,357.096 104.580 C 357.134 104.279,357.134 103.788,357.096 103.487 C 357.059 103.187,357.029 103.433,357.029 104.034 M257.041 109.328 C 257.041 110.622,257.068 111.129,257.100 110.455 C 257.132 109.781,257.131 108.722,257.099 108.102 C 257.067 107.482,257.041 108.034,257.041 109.328 M177.042 110.756 C 177.042 112.097,177.068 112.645,177.100 111.975 C 177.131 111.305,177.131 110.208,177.100 109.538 C 177.068 108.868,177.042 109.416,177.042 110.756 M17.046 120.336 C 17.046 122.231,17.070 123.006,17.100 122.059 C 17.130 121.111,17.130 119.561,17.100 118.613 C 17.070 117.666,17.046 118.441,17.046 120.336 M381.975 121.133 C 382.553 121.166,383.498 121.166,384.076 121.133 C 384.653 121.100,384.181 121.073,383.025 121.073 C 381.870 121.073,381.397 121.100,381.975 121.133 M69.622 123.151 C 72.557 123.177,77.359 123.177,80.294 123.151 C 83.229 123.125,80.828 123.104,74.958 123.104 C 69.088 123.104,66.687 123.125,69.622 123.151 M66.920 163.151 C 71.327 163.176,78.587 163.176,83.054 163.151 C 87.522 163.126,83.916 163.106,75.042 163.106 C 66.168 163.106,62.513 163.126,66.920 163.151 " stroke="none" fill="#201c1c" fill-rule="evenodd"></path><path id="path3" d="M188.854 37.101 C 191.089 37.127,194.795 37.127,197.089 37.101 C 199.383 37.074,197.555 37.053,193.025 37.053 C 188.496 37.053,186.619 37.074,188.854 37.101 M215.420 37.101 C 217.939 37.127,222.061 37.127,224.580 37.101 C 227.099 37.075,225.038 37.053,220.000 37.053 C 214.962 37.053,212.901 37.075,215.420 37.101 M242.404 37.100 C 243.310 37.130,244.747 37.130,245.597 37.100 C 246.447 37.069,245.706 37.045,243.950 37.045 C 242.193 37.045,241.498 37.070,242.404 37.100 M262.909 37.100 C 264.093 37.129,265.984 37.129,267.111 37.100 C 268.238 37.071,267.269 37.048,264.958 37.048 C 262.647 37.048,261.725 37.072,262.909 37.100 M281.398 37.101 C 283.970 37.127,288.130 37.127,290.642 37.101 C 293.155 37.075,291.050 37.053,285.966 37.053 C 280.882 37.053,278.827 37.075,281.398 37.101 M312.899 37.101 C 316.250 37.126,321.733 37.126,325.084 37.101 C 328.435 37.075,325.693 37.054,318.992 37.054 C 312.290 37.054,309.548 37.075,312.899 37.101 M350.474 37.101 C 352.490 37.128,355.742 37.127,357.700 37.101 C 359.658 37.074,358.008 37.052,354.034 37.052 C 350.059 37.052,348.457 37.074,350.474 37.101 M180.966 39.115 C 181.359 39.150,182.002 39.150,182.395 39.115 C 182.788 39.079,182.466 39.050,181.681 39.050 C 180.895 39.050,180.574 39.079,180.966 39.115 M177.034 43.697 C 177.034 44.483,177.062 44.805,177.098 44.412 C 177.133 44.019,177.133 43.376,177.098 42.983 C 177.062 42.590,177.034 42.912,177.034 43.697 M257.034 43.697 C 257.034 44.483,257.062 44.805,257.098 44.412 C 257.133 44.019,257.133 43.376,257.098 42.983 C 257.062 42.590,257.034 42.912,257.034 43.697 M337.052 54.034 C 337.052 58.286,337.074 60.001,337.101 57.846 C 337.127 55.690,337.127 52.211,337.101 50.115 C 337.074 48.018,337.052 49.782,337.052 54.034 M36.975 58.704 C 36.975 58.925,36.745 58.988,35.756 59.035 L 34.538 59.093 35.762 59.126 C 36.933 59.158,37.464 58.921,37.080 58.536 C 37.022 58.479,36.975 58.554,36.975 58.704 M109.622 59.114 C 109.968 59.150,110.536 59.150,110.882 59.114 C 111.229 59.078,110.945 59.048,110.252 59.048 C 109.559 59.048,109.275 59.078,109.622 59.114 M177.032 64.286 C 177.033 65.025,177.063 65.307,177.098 64.912 C 177.134 64.516,177.133 63.911,177.097 63.567 C 177.061 63.223,177.032 63.546,177.032 64.286 M0.714 79.115 C 1.153 79.150,1.872 79.150,2.311 79.115 C 2.750 79.081,2.391 79.052,1.513 79.052 C 0.634 79.052,0.275 79.081,0.714 79.115 M145.504 79.113 C 145.805 79.150,146.296 79.150,146.597 79.113 C 146.897 79.076,146.651 79.045,146.050 79.045 C 145.450 79.045,145.204 79.076,145.504 79.113 M31.975 81.134 C 38.053 81.159,47.998 81.159,54.076 81.134 C 60.153 81.110,55.181 81.090,43.025 81.090 C 30.870 81.090,25.897 81.110,31.975 81.134 M95.000 81.134 C 100.523 81.159,109.561 81.159,115.084 81.134 C 120.607 81.110,116.088 81.090,105.042 81.090 C 93.996 81.090,89.477 81.110,95.000 81.134 M137.011 100.703 C 136.976 102.940,136.965 103.004,136.597 103.075 L 136.218 103.148 136.602 103.170 C 137.131 103.202,137.161 103.050,137.101 100.579 L 137.048 98.403 137.011 100.703 M317.041 105.294 C 317.041 106.588,317.068 107.095,317.100 106.421 C 317.132 105.747,317.131 104.688,317.099 104.068 C 317.067 103.448,317.041 104.000,317.041 105.294 M357.029 104.034 C 357.029 104.634,357.059 104.880,357.096 104.580 C 357.134 104.279,357.134 103.788,357.096 103.487 C 357.059 103.187,357.029 103.433,357.029 104.034 M257.041 109.328 C 257.041 110.622,257.068 111.129,257.100 110.455 C 257.132 109.781,257.131 108.722,257.099 108.102 C 257.067 107.482,257.041 108.034,257.041 109.328 M177.042 110.756 C 177.042 112.097,177.068 112.645,177.100 111.975 C 177.131 111.305,177.131 110.208,177.100 109.538 C 177.068 108.868,177.042 109.416,177.042 110.756 M17.046 120.336 C 17.046 122.231,17.070 123.006,17.100 122.059 C 17.130 121.111,17.130 119.561,17.100 118.613 C 17.070 117.666,17.046 118.441,17.046 120.336 M381.975 121.133 C 382.553 121.166,383.498 121.166,384.076 121.133 C 384.653 121.100,384.181 121.073,383.025 121.073 C 381.870 121.073,381.397 121.100,381.975 121.133 M69.622 123.151 C 72.557 123.177,77.359 123.177,80.294 123.151 C 83.229 123.125,80.828 123.104,74.958 123.104 C 69.088 123.104,66.687 123.125,69.622 123.151 M66.920 163.151 C 71.327 163.176,78.587 163.176,83.054 163.151 C 87.522 163.126,83.916 163.106,75.042 163.106 C 66.168 163.106,62.513 163.126,66.920 163.151 " stroke="none" fill="#201c1c" fill-rule="evenodd"></path><path id="path4" d="M188.854 37.101 C 191.089 37.127,194.795 37.127,197.089 37.101 C 199.383 37.074,197.555 37.053,193.025 37.053 C 188.496 37.053,186.619 37.074,188.854 37.101 M215.420 37.101 C 217.939 37.127,222.061 37.127,224.580 37.101 C 227.099 37.075,225.038 37.053,220.000 37.053 C 214.962 37.053,212.901 37.075,215.420 37.101 M242.404 37.100 C 243.310 37.130,244.747 37.130,245.597 37.100 C 246.447 37.069,245.706 37.045,243.950 37.045 C 242.193 37.045,241.498 37.070,242.404 37.100 M262.909 37.100 C 264.093 37.129,265.984 37.129,267.111 37.100 C 268.238 37.071,267.269 37.048,264.958 37.048 C 262.647 37.048,261.725 37.072,262.909 37.100 M281.398 37.101 C 283.970 37.127,288.130 37.127,290.642 37.101 C 293.155 37.075,291.050 37.053,285.966 37.053 C 280.882 37.053,278.827 37.075,281.398 37.101 M312.899 37.101 C 316.250 37.126,321.733 37.126,325.084 37.101 C 328.435 37.075,325.693 37.054,318.992 37.054 C 312.290 37.054,309.548 37.075,312.899 37.101 M350.474 37.101 C 352.490 37.128,355.742 37.127,357.700 37.101 C 359.658 37.074,358.008 37.052,354.034 37.052 C 350.059 37.052,348.457 37.074,350.474 37.101 M180.966 39.115 C 181.359 39.150,182.002 39.150,182.395 39.115 C 182.788 39.079,182.466 39.050,181.681 39.050 C 180.895 39.050,180.574 39.079,180.966 39.115 M177.034 43.697 C 177.034 44.483,177.062 44.805,177.098 44.412 C 177.133 44.019,177.133 43.376,177.098 42.983 C 177.062 42.590,177.034 42.912,177.034 43.697 M257.034 43.697 C 257.034 44.483,257.062 44.805,257.098 44.412 C 257.133 44.019,257.133 43.376,257.098 42.983 C 257.062 42.590,257.034 42.912,257.034 43.697 M337.052 54.034 C 337.052 58.286,337.074 60.001,337.101 57.846 C 337.127 55.690,337.127 52.211,337.101 50.115 C 337.074 48.018,337.052 49.782,337.052 54.034 M36.975 58.704 C 36.975 58.925,36.745 58.988,35.756 59.035 L 34.538 59.093 35.762 59.126 C 36.933 59.158,37.464 58.921,37.080 58.536 C 37.022 58.479,36.975 58.554,36.975 58.704 M109.622 59.114 C 109.968 59.150,110.536 59.150,110.882 59.114 C 111.229 59.078,110.945 59.048,110.252 59.048 C 109.559 59.048,109.275 59.078,109.622 59.114 M177.032 64.286 C 177.033 65.025,177.063 65.307,177.098 64.912 C 177.134 64.516,177.133 63.911,177.097 63.567 C 177.061 63.223,177.032 63.546,177.032 64.286 M0.714 79.115 C 1.153 79.150,1.872 79.150,2.311 79.115 C 2.750 79.081,2.391 79.052,1.513 79.052 C 0.634 79.052,0.275 79.081,0.714 79.115 M145.504 79.113 C 145.805 79.150,146.296 79.150,146.597 79.113 C 146.897 79.076,146.651 79.045,146.050 79.045 C 145.450 79.045,145.204 79.076,145.504 79.113 M31.975 81.134 C 38.053 81.159,47.998 81.159,54.076 81.134 C 60.153 81.110,55.181 81.090,43.025 81.090 C 30.870 81.090,25.897 81.110,31.975 81.134 M95.000 81.134 C 100.523 81.159,109.561 81.159,115.084 81.134 C 120.607 81.110,116.088 81.090,105.042 81.090 C 93.996 81.090,89.477 81.110,95.000 81.134 M137.011 100.703 C 136.976 102.940,136.965 103.004,136.597 103.075 L 136.218 103.148 136.602 103.170 C 137.131 103.202,137.161 103.050,137.101 100.579 L 137.048 98.403 137.011 100.703 M317.041 105.294 C 317.041 106.588,317.068 107.095,317.100 106.421 C 317.132 105.747,317.131 104.688,317.099 104.068 C 317.067 103.448,317.041 104.000,317.041 105.294 M357.029 104.034 C 357.029 104.634,357.059 104.880,357.096 104.580 C 357.134 104.279,357.134 103.788,357.096 103.487 C 357.059 103.187,357.029 103.433,357.029 104.034 M257.041 109.328 C 257.041 110.622,257.068 111.129,257.100 110.455 C 257.132 109.781,257.131 108.722,257.099 108.102 C 257.067 107.482,257.041 108.034,257.041 109.328 M177.042 110.756 C 177.042 112.097,177.068 112.645,177.100 111.975 C 177.131 111.305,177.131 110.208,177.100 109.538 C 177.068 108.868,177.042 109.416,177.042 110.756 M17.046 120.336 C 17.046 122.231,17.070 123.006,17.100 122.059 C 17.130 121.111,17.130 119.561,17.100 118.613 C 17.070 117.666,17.046 118.441,17.046 120.336 M381.975 121.133 C 382.553 121.166,383.498 121.166,384.076 121.133 C 384.653 121.100,384.181 121.073,383.025 121.073 C 381.870 121.073,381.397 121.100,381.975 121.133 M69.622 123.151 C 72.557 123.177,77.359 123.177,80.294 123.151 C 83.229 123.125,80.828 123.104,74.958 123.104 C 69.088 123.104,66.687 123.125,69.622 123.151 M66.920 163.151 C 71.327 163.176,78.587 163.176,83.054 163.151 C 87.522 163.126,83.916 163.106,75.042 163.106 C 66.168 163.106,62.513 163.126,66.920 163.151 " stroke="none" fill="#201c1c" fill-rule="evenodd"></path></g></svg>