<svg width="415" height="96" viewBox="0 0 83 24" fill="none" xmlns="http://www.w3.org/2000/svg">
<path d="M18.384 23V10.424L14.32 23H9.84L5.776 10.36V23H0.112V0.151999H7.248L12.144 15.448L17.072 0.151999H24.176V23H18.384ZM36.2013 23.512C33.4706 23.512 31.3479 22.744 29.8333 21.208C28.3186 19.6507 27.5613 17.4747 27.5613 14.68C27.5613 11.8427 28.3293 9.63467 29.8653 8.056C31.4226 6.47733 33.5773 5.688 36.3293 5.688C39.0599 5.688 41.1826 6.46667 42.6973 8.024C44.2119 9.58133 44.9693 11.7573 44.9693 14.552C44.9693 17.368 44.2013 19.5653 42.6653 21.144C41.1293 22.7227 38.9746 23.512 36.2013 23.512ZM36.2653 18.936C38.1639 18.936 39.1133 17.4853 39.1133 14.584C39.1133 11.704 38.1639 10.264 36.2653 10.264C34.3666 10.264 33.4173 11.7147 33.4173 14.616C33.4173 17.496 34.3666 18.936 36.2653 18.936ZM58.378 23V12.696C58.378 11.9067 58.2287 11.3413 57.93 11C57.6313 10.6373 57.1513 10.456 56.49 10.456C55.722 10.456 55.082 10.7013 54.57 11.192C54.058 11.704 53.802 12.3973 53.802 13.272V23H48.01V6.2H53.642V8.184C54.9007 6.52 56.5967 5.688 58.73 5.688C60.5007 5.688 61.8447 6.21067 62.762 7.256C63.7007 8.30133 64.17 9.80533 64.17 11.768V23H58.378ZM77.4933 23V21.176C76.7466 21.9653 75.9679 22.5413 75.1573 22.904C74.3466 23.2667 73.4293 23.448 72.4053 23.448C70.6559 23.448 69.2693 23 68.2453 22.104C67.2426 21.1867 66.7413 19.9493 66.7413 18.392C66.7413 16.6213 67.4026 15.2773 68.7253 14.36C70.0479 13.4213 72.0746 12.888 74.8053 12.76L77.3333 12.632V11.96C77.3333 10.488 76.6186 9.752 75.1892 9.752C73.8666 9.752 73.1093 10.3067 72.9173 11.416L67.7013 11C68.2773 7.45867 70.8586 5.688 75.4453 5.688C77.9839 5.688 79.8613 6.25333 81.0773 7.384C82.2933 8.51467 82.9013 10.2427 82.9013 12.568V23H77.4933ZM77.3013 15.896L75.4453 15.992C74.3573 16.056 73.5573 16.248 73.0453 16.568C72.5546 16.8667 72.3093 17.3253 72.3093 17.944C72.3093 18.968 72.9386 19.48 74.1973 19.48C75.1573 19.48 75.9146 19.2133 76.4693 18.68C77.0239 18.1253 77.3013 17.3893 77.3013 16.472V15.896Z" fill="black"/>
</svg>
