<svg enable-background="new 0 0 314.4 82.3" viewBox="0 0 314.4 82.3" xmlns="http://www.w3.org/2000/svg"><g fill="#fff"><path d="m29.4 19.2-8.8 5c-.3.1-.3.5 0 .6l20.6 11.8c.2.1.5.1.7 0l8.8-5c.3-.1.3-.5 0-.6l-20.5-11.8c-.3-.1-.5-.1-.8 0z"/><path d="m52.9 19.2-8.8 5c-.3.1-.3.5 0 .6l8.9 5.2c.2.1.5.1.7 0l8.8-5c.3-.1.3-.5 0-.6l-8.9-5.1c-.2-.2-.5-.2-.7-.1z"/><path d="m42.6 39.3v10.1c0 .3.3.5.6.3l8.9-5.1c.1-.1.2-.2.2-.3v-10.4c0-.3-.3-.5-.6-.3l-8.7 5c-.3.2-.4.4-.4.7z"/><path d="m54.6 31.9 8.8-5c.2-.1.6 0 .6.3v23.6c0 .3-.1.5-.4.6l-20.5 11.8c-.2.1-.6 0-.6-.3v-10.1c0-.3.1-.5.4-.6l11-6.3c.2-.1.4-.4.4-.7v-12.6c0-.3.1-.5.3-.7z"/><path d="m40.6 39.2v10.4c0 .2-.2.3-.4.2l-10.8-6.2c-.2-.1-.6 0-.6.3v12.2c0 .3-.3.5-.6.3l-8.8-5c-.2-.1-.4-.4-.4-.6v-23.7c0-.3.3-.5.6-.3l20.6 11.8c.2.1.4.4.4.6z"/><path d="m31.3 47 8.8 5.1c.2.1.4.4.4.6v10.2c0 .3-.3.5-.6.3l-8.8-5.1c-.2-.1-.4-.4-.4-.6v-10.1c.1-.3.4-.5.6-.4z"/><path d="m98.1 34.5c0 4.3-2.9 6.8-6.4 7.2-1.2.1-2 .2-3.4.2h-3.5v8.9h-4.7v-23.7h8.2c1.4 0 2.3 0 3.4.2 3.6.4 6.4 2.8 6.4 7.2zm-5 0c0-2.2-1.2-3.3-2.8-3.5-.5-.1-1.2-.1-2.1-.1h-3.4v7.2h3.4c.9 0 1.6 0 2.1-.1 1.7-.3 2.8-1.3 2.8-3.5z"/><path d="m111 32.2v3.8c-3.9-.3-5.9 1.5-5.9 6.4v8.3h-4.7v-18.2h4.7v3.3l1.4-2.5c.9-.8 2.1-1.2 3.1-1.2.6 0 1 0 1.4.1z"/><path d="m130.7 41.6c0 5.5-3.4 9.6-9.4 9.6s-9.4-4.1-9.4-9.6 3.4-9.6 9.4-9.6 9.4 4.1 9.4 9.6zm-4.9 0c0-3.9-1.7-6.3-4.5-6.3s-4.5 2.3-4.5 6.3c0 3.9 1.7 6.3 4.5 6.3 2.8-.1 4.5-2.4 4.5-6.3z"/><path d="m139.2 44.2v1.6c.1 1.8.8 2.2 3.4 2v3.1c-1.1.2-2.1.2-3.1.2-3.5 0-4.8-1.2-5-3.7-.1-.8-.1-1.6-.1-2.6v-9h-2.7v-3.1h2.7v-6h4.7v6h3.8v3.1h-3.8v8.4z"/><path d="m163 41.6c0 5.5-3.4 9.6-9.4 9.6s-9.4-4.1-9.4-9.6 3.4-9.6 9.4-9.6 9.4 4.1 9.4 9.6zm-4.8 0c0-3.9-1.7-6.3-4.5-6.3s-4.5 2.3-4.5 6.3c0 3.9 1.7 6.3 4.5 6.3 2.7-.1 4.5-2.4 4.5-6.3z"/><path d="m182.1 39.1h-4.6c-.4-2.6-1.8-3.7-3.8-3.7-2.4 0-4.1 1.9-4.1 6.1 0 4.5 1.7 6.4 4.1 6.4 1.8 0 3.2-1.2 3.7-3.5h4.7c-.8 4.5-4.1 6.8-8.7 6.8-5 0-8.7-3.1-8.7-9.4 0-6.2 4.1-9.7 9.1-9.7 4.9-.1 8 2.9 8.3 7z"/><path d="m202.6 41.6c0 5.5-3.4 9.6-9.4 9.6s-9.4-4.1-9.4-9.6 3.4-9.6 9.4-9.6 9.4 4.1 9.4 9.6zm-4.9 0c0-3.9-1.7-6.3-4.5-6.3s-4.5 2.3-4.5 6.3c0 3.9 1.7 6.3 4.5 6.3 2.8-.1 4.5-2.4 4.5-6.3z"/><path d="m204.7 50.7v-24.1h4.7v24.1z"/><path d="m238.6 50.7h-17v-24.1h4.7v20.2h12.3z"/><path d="m251.3 48-.9 1.9c-1.3.9-2.8 1.2-4.5 1.2-3.1 0-5.8-1.8-5.8-5.3 0-4 3.4-6.3 10-6.3h1.2v-.4c0-.5 0-1.1-.1-1.7-.1-1.3-1-2.2-2.8-2.2-1.9 0-2.9 1.1-3 3.1h-4.6c.1-4.1 3.5-6.4 7.8-6.4 5.1 0 7 2.2 7.3 5.4.1.9.1 1.8.1 2.8v5.9c0 1.4.1 2.6.3 4.6h-4.6zm0-4v-1.5c-3.8-.3-6.3.6-6.3 3 0 1.6 1.1 2.4 2.8 2.4 1.9-.1 3.5-1.4 3.5-3.9z"/><path d="m278.4 41.3c0 6.6-4 9.9-8.7 9.9-1.5 0-3.3-.4-4.3-1l-1.2-1.9v2.4h-4.7v-24.1h4.7v8.7l1.4-2c1-.8 2.9-1.3 4.7-1.3 5.1 0 8.1 3.9 8.1 9.3zm-4.9.3c0-3.7-1.8-6.2-4.6-6.2-2.6 0-4.7 1.6-4.7 6v.9c0 4.1 2.4 5.6 4.5 5.6 2.8-.1 4.8-2.1 4.8-6.3z"/><path d="m295 37.8h-4.7c-.3-1.7-1.2-2.6-2.8-2.6-1.4 0-2.2.8-2.2 1.9 0 1.4 1.1 2.1 4.1 2.8 3.7 1 5.9 2.5 5.9 5.8 0 3.7-3.3 5.4-7.5 5.4-4.4 0-7.5-1.9-8-6h4.7c.4 2 1.7 2.9 3.4 2.9 1.5 0 2.7-.6 2.7-2s-1.2-2.2-4.3-3c-3.4-.9-5.7-2.3-5.7-5.5 0-3.5 2.9-5.6 7.2-5.6 4.3.1 6.8 2.6 7.2 5.9z"/></g></svg>